<?xml version="1.0" encoding="UTF-8" standalone="no"?>
<svg
   version="1.1"
   viewBox="0 0 626 689"
   id="svg301"
   sodipodi:docname="kukkaro.svg"
   inkscape:version="1.2.2 (b0a8486541, 2022-12-01)"
   xmlns:inkscape="http://www.inkscape.org/namespaces/inkscape"
   xmlns:sodipodi="http://sodipodi.sourceforge.net/DTD/sodipodi-0.dtd"
   xmlns="http://www.w3.org/2000/svg"
   xmlns:svg="http://www.w3.org/2000/svg">
  <defs
     id="defs305" />
  <sodipodi:namedview
     id="namedview303"
     pagecolor="#ffffff"
     bordercolor="#000000"
     borderopacity="0.25"
     inkscape:showpageshadow="2"
     inkscape:pageopacity="0.0"
     inkscape:pagecheckerboard="true"
     inkscape:deskcolor="#d1d1d1"
     showgrid="false"
     inkscape:zoom="1.222061"
     inkscape:cx="145.65558"
     inkscape:cy="860.02254"
     inkscape:window-width="1914"
     inkscape:window-height="1045"
     inkscape:window-x="2"
     inkscape:window-y="31"
     inkscape:window-maximized="1"
     inkscape:current-layer="svg301" />
  <path
     fill="rgb(72,68,70)"
     fill-opacity="1.000"
     d="M 308.00 1.21 Q 311.81 5.68 314.17 11.07 Q 315.70 14.57 313.46 17.50 Q 312.50 10.73 308.17 5.80 Q 305.73 3.03 303.36 2.47 Q 299.63 1.60 297.50 6.25 Q 295.87 9.81 291.06 16.34 Q 280.81 30.27 271.76 45.01 Q 270.90 46.42 270.46 48.00 L 269.71 49.75 Q 267.92 50.36 267.62 49.17 Q 267.44 48.50 268.01 47.59 Q 280.62 27.30 294.10 7.59 Q 296.08 4.71 298.79 2.50 Q 302.98 -1.20 308.00 1.21 Z"
     id="path239" />
  <path
     fill="rgb(72,68,70)"
     fill-opacity="1.000"
     d="M 333.96 2.25 Q 336.13 3.99 337.78 6.23 Q 351.72 25.17 363.54 45.50 Q 363.51 46.08 363.00 46.29 Q 338.45 14.98 335.69 10.56 Q 332.26 5.08 327.00 4.00 Q 323.71 3.32 321.87 5.55 Q 320.56 7.15 320.48 9.72 Q 320.40 12.31 321.56 14.19 Q 326.71 22.47 336.11 30.88 Q 337.39 32.03 336.50 33.29 Q 327.85 23.92 319.29 14.46 Q 315.62 10.41 318.56 6.06 Q 320.03 3.90 322.79 2.00 Q 328.51 -1.52 333.96 2.25 Z"
     id="path241" />
  <path
     fill="rgb(202,199,196)"
     fill-opacity="1.000"
     d="M 308.17 5.80 Q 312.50 10.73 313.46 17.50 Q 299.68 33.87 282.25 46.29 L 273.00 49.04 Q 271.60 48.82 270.46 48.00 Q 270.90 46.42 271.76 45.01 Q 280.81 30.27 291.06 16.34 Q 295.87 9.81 297.50 6.25 Q 299.63 1.60 303.36 2.47 Q 305.73 3.03 308.17 5.80 Z"
     id="path251" />
  <path
     fill="rgb(202,199,196)"
     fill-opacity="1.000"
     d="M 327.00 4.00 Q 332.26 5.08 335.69 10.56 Q 338.45 14.98 363.00 46.29 Q 363.45 46.91 363.06 47.81 Q 360.48 53.81 354.25 54.75 Q 351.47 55.17 350.71 51.75 Q 352.29 47.98 348.94 45.31 Q 344.36 41.66 336.50 33.29 Q 337.39 32.03 336.11 30.88 Q 326.71 22.47 321.56 14.19 Q 320.40 12.31 320.48 9.72 Q 320.56 7.15 321.87 5.55 Q 323.71 3.32 327.00 4.00 Z"
     id="path253" />
  <path
     fill="rgb(94,94,93)"
     fill-opacity="1.000"
     d="M 363.54 45.50 Q 363.99 45.99 364.24 46.58 Q 364.46 47.10 364.29 47.81 Q 363.78 49.91 363.21 52.00 Q 360.25 56.56 354.75 56.50 Q 351.55 55.70 348.31 55.06 Q 321.79 56.50 295.26 55.27 Q 287.39 54.90 284.25 55.25 Q 281.72 55.53 281.00 53.54 Q 315.13 54.52 344.75 54.25 Q 348.16 54.22 350.71 51.75 Q 351.47 55.17 354.25 54.75 Q 360.48 53.81 363.06 47.81 Q 363.45 46.91 363.00 46.29 Q 363.51 46.08 363.54 45.50 Z"
     id="path255" />
  <path
     fill="rgb(72,68,70)"
     fill-opacity="1.000"
     d="M 282.25 46.29 Q 280.91 48.86 278.71 50.75 L 273.00 49.04 L 282.25 46.29 Z"
     id="path257" />
  <path
     fill="rgb(180,178,175)"
     fill-opacity="1.000"
     d="M 270.46 48.00 Q 271.60 48.82 273.00 49.04 L 278.71 50.75 Q 278.98 52.88 281.00 53.54 Q 281.72 55.53 284.25 55.25 Q 287.39 54.90 295.26 55.27 Q 321.79 56.50 348.31 55.06 Q 351.55 55.70 354.75 56.50 Q 360.25 56.56 363.21 52.00 Q 363.39 52.82 364.25 53.01 Q 372.15 54.73 380.26 54.42 Q 420.87 52.89 461.50 53.52 Q 477.04 53.76 491.07 60.43 Q 501.08 65.18 504.06 75.94 Q 505.87 82.44 506.97 94.52 Q 508.18 107.77 508.20 107.96 Q 511.88 145.90 509.71 184.00 Q 505.30 179.79 504.14 173.77 Q 503.82 172.13 501.81 168.44 Q 488.87 144.66 486.49 116.49 Q 485.94 110.04 485.94 110.02 Q 484.40 94.36 483.25 90.75 Q 479.87 80.15 469.04 77.50 Q 464.08 75.37 458.00 75.00 Q 450.27 74.53 444.25 75.00 Q 416.47 75.76 388.71 77.00 Q 301.73 76.70 214.75 76.75 Q 185.08 74.93 158.75 79.50 Q 147.20 81.51 150.60 93.01 A 1.47 1.22 52.8 0 1 150.56 93.95 Q 149.94 95.32 148.94 96.44 Q 146.60 100.43 148.31 104.69 Q 149.02 107.93 148.81 109.81 Q 147.46 122.15 143.46 152.74 Q 142.93 156.74 141.43 160.37 Q 134.30 177.55 126.00 194.21 L 125.50 88.21 Q 126.55 79.99 129.56 74.06 Q 133.39 66.55 140.42 62.25 Q 145.22 59.31 155.08 57.14 Q 176.42 52.45 198.25 53.57 Q 212.39 54.30 215.77 54.32 Q 237.76 54.45 259.75 54.25 Q 263.72 54.49 267.62 53.91 Q 269.28 53.66 269.86 52.74 Q 270.67 51.46 269.71 49.75 L 270.46 48.00 Z M 438.96 60.56 Q 437.16 60.75 438.95 61.04 Q 445.59 62.11 452.76 61.46 Q 455.35 61.23 456.72 61.51 Q 458.72 61.93 460.48 62.93 Q 464.30 65.11 464.34 65.13 Q 472.91 69.03 480.00 71.00 Q 483.26 71.91 485.64 73.57 Q 487.58 74.92 489.41 78.24 Q 494.91 88.20 500.22 97.34 Q 501.21 99.04 501.79 97.17 Q 503.41 91.96 502.86 87.09 Q 502.41 83.13 500.16 77.54 Q 494.52 63.56 480.81 59.70 Q 474.54 57.93 461.05 58.71 Q 450.11 59.35 438.96 60.56 Z M 128.92 82.56 Q 130.57 82.96 131.94 81.94 Q 133.72 79.48 135.61 77.11 Q 140.05 71.55 147.00 70.36 Q 147.05 70.36 148.50 70.18 Q 154.43 69.48 154.50 63.25 Q 154.53 60.35 152.00 61.25 Q 139.07 65.82 130.38 76.37 Q 128.55 78.60 128.09 81.29 A 1.11 1.11 12.0 0 0 128.92 82.56 Z M 158.58 71.94 Q 151.40 71.53 146.29 75.42 Q 143.60 77.46 139.78 83.92 Q 136.75 89.04 133.56 94.06 Q 130.01 100.89 130.35 108.49 Q 130.38 109.13 131.21 113.30 Q 131.69 115.76 131.43 118.25 Q 131.39 118.67 130.79 120.69 Q 130.38 122.06 130.65 123.27 Q 131.05 125.13 131.93 123.45 Q 137.68 112.53 135.65 100.27 Q 134.85 95.44 137.09 91.81 Q 138.36 89.74 143.22 86.60 Q 151.88 81.02 159.28 73.84 Q 161.10 72.08 158.58 71.94 Z"
     id="path259" />
  <path
     fill="rgb(202,199,196)"
     fill-opacity="1.000"
     d="M 480.81 59.70 Q 494.52 63.56 500.16 77.54 Q 502.41 83.13 502.86 87.09 Q 503.41 91.96 501.79 97.17 Q 501.21 99.04 500.22 97.34 Q 494.91 88.20 489.41 78.24 Q 487.58 74.92 485.64 73.57 Q 483.26 71.91 480.00 71.00 Q 472.91 69.03 464.34 65.13 Q 464.30 65.11 460.48 62.93 Q 458.72 61.93 456.72 61.51 Q 455.35 61.23 452.76 61.46 Q 445.59 62.11 438.95 61.04 Q 437.16 60.75 438.96 60.56 Q 450.11 59.35 461.05 58.71 Q 474.54 57.93 480.81 59.70 Z"
     id="path261" />
  <path
     fill="rgb(202,199,196)"
     fill-opacity="1.000"
     d="M 152.00 61.25 Q 154.53 60.35 154.50 63.25 Q 154.43 69.48 148.50 70.18 Q 147.05 70.36 147.00 70.36 Q 140.05 71.55 135.61 77.11 Q 133.72 79.48 131.94 81.94 Q 130.57 82.96 128.92 82.56 A 1.11 1.11 12.0 0 1 128.09 81.29 Q 128.55 78.60 130.38 76.37 Q 139.07 65.82 152.00 61.25 Z"
     id="path263" />
  <path
     fill="rgb(128,128,128)"
     fill-opacity="1.000"
     d="M 158.58 71.94 Q 161.10 72.08 159.28 73.84 Q 151.88 81.02 143.22 86.60 Q 138.36 89.74 137.09 91.81 Q 134.85 95.44 135.65 100.27 Q 137.68 112.53 131.93 123.45 Q 131.05 125.13 130.65 123.27 Q 130.38 122.06 130.79 120.69 Q 131.39 118.67 131.43 118.25 Q 131.69 115.76 131.21 113.30 Q 130.38 109.13 130.35 108.49 Q 130.01 100.89 133.56 94.06 Q 136.75 89.04 139.78 83.92 Q 143.60 77.46 146.29 75.42 Q 151.40 71.53 158.58 71.94 Z"
     id="path265" />
  <path
     fill="rgb(236,236,234)"
     fill-opacity="1.000"
     d="M 458.00 75.00 Q 464.08 75.37 469.04 77.50 Q 464.96 78.22 463.69 78.94 Q 439.92 92.28 418.10 108.62 Q 406.46 117.33 394.31 129.56 Q 365.40 158.67 366.72 199.71 Q 366.72 199.77 367.01 201.25 Q 367.18 202.13 366.71 203.00 L 337.71 138.50 L 340.01 130.95 Q 340.54 129.21 342.54 128.46 Q 347.69 126.54 353.35 124.16 Q 363.45 119.91 371.06 112.06 Q 375.72 107.26 377.94 99.04 Q 377.95 99.01 378.69 94.39 Q 379.30 90.61 381.81 87.31 Q 384.68 83.54 388.71 77.00 Q 416.47 75.76 444.25 75.00 Q 450.27 74.53 458.00 75.00 Z"
     id="path267" />
  <path
     fill="rgb(228,23,74)"
     fill-opacity="1.000"
     d="M 214.75 76.75 Q 301.73 76.70 388.71 77.00 Q 384.68 83.54 381.81 87.31 Q 379.30 90.61 378.69 94.39 Q 377.95 99.01 377.94 99.04 Q 375.72 107.26 371.06 112.06 Q 363.45 119.91 353.35 124.16 Q 347.69 126.54 342.54 128.46 Q 340.54 129.21 340.01 130.95 L 337.71 138.50 Q 332.68 128.41 331.69 125.81 Q 329.37 119.71 325.56 114.44 Q 324.51 112.98 324.25 114.50 Q 328.53 138.76 331.21 163.25 Q 330.36 163.34 330.06 164.31 Q 327.12 174.08 321.15 182.81 Q 321.12 182.86 319.08 185.45 Q 317.53 187.42 316.25 190.25 Q 306.70 211.37 291.44 230.69 Q 280.52 244.51 266.94 252.94 Q 264.81 254.26 261.25 255.29 Q 223.63 228.94 186.27 202.22 Q 176.48 195.21 167.36 187.33 Q 165.95 186.11 164.66 186.10 Q 162.43 186.07 161.94 188.17 Q 161.45 190.29 163.11 191.68 Q 172.28 199.37 178.78 207.49 Q 200.29 234.35 220.50 262.21 Q 214.49 262.48 210.25 261.75 Q 205.86 260.99 202.31 262.56 Q 192.24 268.16 182.01 273.47 Q 168.37 280.53 152.94 280.06 Q 142.14 279.73 133.42 275.98 Q 126.99 273.22 122.63 268.57 Q 118.05 263.68 115.54 257.20 Q 111.43 246.58 111.67 235.18 Q 111.68 234.73 111.53 233.98 Q 111.41 233.38 111.46 232.75 Q 111.19 230.35 112.25 228.25 Q 118.19 212.22 124.29 196.25 Q 125.49 195.52 126.00 194.21 Q 134.30 177.55 141.43 160.37 Q 142.93 156.74 143.46 152.74 Q 147.46 122.15 148.81 109.81 Q 149.02 107.93 148.31 104.69 Q 146.60 100.43 148.94 96.44 Q 149.94 95.32 150.56 93.95 A 1.47 1.22 52.8 0 0 150.60 93.01 Q 147.20 81.51 158.75 79.50 Q 185.08 74.93 214.75 76.75 Z"
     id="path269" />
  <path
     fill="rgb(195,13,59)"
     fill-opacity="1.000"
     d="M 469.04 77.50 Q 479.87 80.15 483.25 90.75 Q 484.40 94.36 485.94 110.02 Q 485.94 110.04 486.49 116.49 Q 488.87 144.66 501.81 168.44 Q 503.82 172.13 504.14 173.77 Q 505.30 179.79 509.71 184.00 Q 513.54 191.66 518.06 198.94 Q 548.59 244.51 576.71 291.60 Q 585.92 307.02 586.91 308.79 Q 596.47 325.94 601.75 343.75 Q 605.78 357.36 607.17 361.74 Q 613.03 380.27 615.93 399.51 Q 616.00 399.97 616.31 400.40 Q 619.21 404.28 616.21 408.25 Q 580.51 418.44 555.72 395.67 Q 548.82 389.34 543.16 380.19 Q 531.59 361.52 528.54 339.25 Q 528.94 339.04 529.75 339.50 Q 533.09 341.38 536.47 342.41 A 1.86 1.84 -68.3 0 0 538.68 341.45 Q 540.11 338.53 539.95 335.49 Q 539.82 333.05 537.81 330.06 Q 533.31 323.38 527.75 317.54 Q 530.17 300.97 533.66 284.58 Q 536.96 269.09 539.75 253.50 Q 541.86 244.14 537.68 235.55 Q 536.42 232.95 535.29 235.61 Q 520.16 271.43 494.25 300.46 Q 483.36 300.81 472.50 304.50 Q 465.23 306.97 455.34 309.97 Q 442.93 313.73 441.26 314.11 Q 433.31 315.94 426.50 315.25 Q 417.59 314.34 414.00 305.25 Q 389.81 254.38 366.71 203.00 Q 367.18 202.13 367.01 201.25 Q 366.72 199.77 366.72 199.71 Q 365.40 158.67 394.31 129.56 Q 406.46 117.33 418.10 108.62 Q 439.92 92.28 463.69 78.94 Q 464.96 78.22 469.04 77.50 Z"
     id="path271" />
  <path
     fill="rgb(72,68,70)"
     fill-opacity="1.000"
     d="M 125.50 88.21 L 126.00 194.21 Q 125.49 195.52 124.29 196.25 Q 123.82 116.93 123.25 105.50 Q 122.77 95.87 125.50 88.21 Z"
     id="path273" />
  <path
     fill="rgb(2,2,2)"
     fill-opacity="1.000"
     d="M 325.56 114.44 Q 329.37 119.71 331.69 125.81 Q 332.68 128.41 337.71 138.50 L 366.71 203.00 Q 389.81 254.38 414.00 305.25 Q 417.59 314.34 426.50 315.25 Q 433.31 315.94 441.26 314.11 Q 442.93 313.73 455.34 309.97 Q 465.23 306.97 472.50 304.50 Q 483.36 300.81 494.25 300.46 Q 513.28 302.97 526.31 316.44 Q 527.17 317.32 527.75 317.54 Q 533.31 323.38 537.81 330.06 Q 539.82 333.05 539.95 335.49 Q 540.11 338.53 538.68 341.45 A 1.86 1.84 -68.3 0 1 536.47 342.41 Q 533.09 341.38 529.75 339.50 Q 528.94 339.04 528.54 339.25 Q 521.42 334.08 513.03 331.74 Q 509.83 330.85 506.94 331.58 Q 496.67 334.17 492.67 344.68 Q 488.36 356.00 482.71 366.70 Q 479.34 373.08 477.75 378.25 Q 473.38 392.42 469.01 404.34 Q 464.89 415.56 460.49 422.38 Q 454.98 430.92 447.60 438.10 Q 430.89 454.36 411.97 467.98 Q 378.97 491.73 342.57 509.72 Q 331.63 515.13 324.50 518.31 Q 300.41 529.03 274.55 534.76 Q 271.43 535.45 268.54 536.75 Q 267.84 536.30 267.15 536.54 Q 266.37 536.83 266.31 536.84 Q 236.44 542.86 206.56 548.81 Q 186.25 553.08 166.70 559.88 Q 159.37 562.43 148.13 567.27 Q 121.81 578.60 112.94 582.19 Q 100.92 587.04 88.23 589.65 Q 81.42 591.04 74.50 590.47 Q 70.12 590.10 66.58 588.09 A 1.55 1.55 -53.7 0 1 66.21 585.68 Q 68.38 583.38 70.83 582.36 Q 82.54 577.46 94.75 573.99 Q 119.64 566.93 144.45 559.57 Q 156.15 556.11 162.25 553.75 Q 193.91 541.52 224.67 527.15 Q 250.21 515.23 274.60 501.12 Q 297.56 487.84 318.04 471.00 Q 338.95 455.19 358.57 437.82 Q 362.24 434.56 365.25 430.71 Q 367.39 427.98 367.20 425.62 Q 366.94 422.38 363.81 420.19 Q 359.41 417.11 355.44 415.09 Q 351.76 413.23 351.73 413.21 Q 336.55 405.04 320.75 394.75 Q 302.77 383.04 288.28 368.22 Q 276.73 356.42 269.25 342.50 Q 262.06 329.11 253.55 311.60 Q 249.04 302.33 244.56 295.69 Q 234.48 280.74 220.50 262.21 Q 200.29 234.35 178.78 207.49 Q 172.28 199.37 163.11 191.68 Q 161.45 190.29 161.94 188.17 Q 162.43 186.07 164.66 186.10 Q 165.95 186.11 167.36 187.33 Q 176.48 195.21 186.27 202.22 Q 223.63 228.94 261.25 255.29 Q 284.95 271.59 291.44 276.81 Q 297.20 281.46 323.12 305.12 Q 329.02 310.51 336.19 314.92 Q 337.92 315.98 339.93 316.23 Q 343.46 316.68 343.48 312.75 Q 343.50 309.62 343.29 306.51 Q 338.37 234.79 331.21 163.25 Q 328.53 138.76 324.25 114.50 Q 324.51 112.98 325.56 114.44 Z"
     id="path275" />
  <path
     fill="rgb(236,236,234)"
     fill-opacity="1.000"
     d="M 331.21 163.25 Q 338.37 234.79 343.29 306.51 Q 343.50 309.62 343.48 312.75 Q 343.46 316.68 339.93 316.23 Q 337.92 315.98 336.19 314.92 Q 329.02 310.51 323.12 305.12 Q 297.20 281.46 291.44 276.81 Q 284.95 271.59 261.25 255.29 Q 264.81 254.26 266.94 252.94 Q 280.52 244.51 291.44 230.69 Q 306.70 211.37 316.25 190.25 Q 317.53 187.42 319.08 185.45 Q 321.12 182.86 321.15 182.81 Q 327.12 174.08 330.06 164.31 Q 330.36 163.34 331.21 163.25 Z"
     id="path277" />
  <path
     fill="rgb(236,236,234)"
     fill-opacity="1.000"
     d="M 111.46 232.75 Q 111.41 233.38 111.53 233.98 Q 111.68 234.73 111.67 235.18 Q 111.43 246.58 115.54 257.20 Q 118.05 263.68 122.63 268.57 Q 126.99 273.22 133.42 275.98 Q 142.14 279.73 152.94 280.06 Q 168.37 280.53 182.01 273.47 Q 192.24 268.16 202.31 262.56 Q 205.86 260.99 210.25 261.75 Q 214.49 262.48 220.50 262.21 Q 234.48 280.74 244.56 295.69 Q 249.04 302.33 253.55 311.60 Q 262.06 329.11 269.25 342.50 Q 276.73 356.42 288.28 368.22 Q 302.77 383.04 320.75 394.75 Q 336.55 405.04 351.73 413.21 Q 351.76 413.23 355.44 415.09 Q 359.41 417.11 363.81 420.19 Q 366.94 422.38 367.20 425.62 Q 367.39 427.98 365.25 430.71 Q 362.24 434.56 358.57 437.82 Q 338.95 455.19 318.04 471.00 Q 309.65 453.39 295.07 440.92 Q 290.38 436.91 282.93 431.65 Q 276.11 426.83 269.94 423.56 Q 229.56 402.14 183.44 396.52 Q 171.97 395.12 163.54 394.67 Q 143.09 393.58 123.81 397.56 Q 99.81 402.52 73.85 412.16 Q 39.89 424.77 6.79 439.50 L 6.29 434.25 Q 15.61 426.24 24.36 417.61 Q 27.21 414.80 30.31 410.56 Q 34.37 405.03 35.80 398.68 Q 36.31 396.41 36.40 388.76 Q 36.46 383.42 37.31 378.81 Q 38.92 370.05 42.66 359.60 Q 43.72 356.66 48.19 349.69 Q 56.95 336.03 66.06 315.31 Q 73.51 298.38 95.54 252.25 Q 103.17 237.21 104.06 236.31 Q 107.10 233.27 111.46 232.75 Z"
     id="path279" />
  <path
     fill="rgb(236,236,234)"
     fill-opacity="1.000"
     d="M 537.68 235.55 Q 541.86 244.14 539.75 253.50 Q 536.96 269.09 533.66 284.58 Q 530.17 300.97 527.75 317.54 Q 527.17 317.32 526.31 316.44 Q 513.28 302.97 494.25 300.46 Q 520.16 271.43 535.29 235.61 Q 536.42 232.95 537.68 235.55 Z"
     id="path281" />
  <path
     fill="rgb(195,13,59)"
     fill-opacity="1.000"
     d="M 95.54 252.25 Q 73.51 298.38 66.06 315.31 Q 56.95 336.03 48.19 349.69 Q 43.72 356.66 42.66 359.60 Q 38.92 370.05 37.31 378.81 Q 36.46 383.42 36.40 388.76 Q 36.31 396.41 35.80 398.68 Q 34.37 405.03 30.31 410.56 Q 27.21 414.80 24.36 417.61 Q 15.61 426.24 6.29 434.25 Q 9.80 418.20 13.75 402.25 Q 21.23 369.68 38.81 341.31 Q 67.38 296.91 95.54 252.25 Z"
     id="path283" />
  <path
     fill="rgb(236,236,234)"
     fill-opacity="1.000"
     d="M 513.03 331.74 Q 521.42 334.08 528.54 339.25 Q 531.59 361.52 543.16 380.19 Q 548.82 389.34 555.72 395.67 Q 580.51 418.44 616.21 408.25 Q 616.44 408.93 617.09 409.26 A 1.57 0.95 11.9 0 1 617.77 409.90 Q 621.53 418.40 621.21 427.75 Q 600.31 412.98 575.00 414.50 Q 528.43 417.30 497.02 450.80 Q 492.46 455.67 490.70 456.91 Q 486.90 459.61 482.50 460.50 Q 470.22 462.99 459.51 467.64 Q 449.37 472.05 442.38 477.81 Q 429.49 488.43 423.59 504.83 Q 419.21 517.02 418.76 530.00 Q 418.38 540.77 421.19 548.06 Q 423.34 553.64 425.57 559.18 Q 428.84 567.27 430.70 575.76 Q 432.26 582.88 432.63 586.76 Q 433.17 592.37 432.25 598.02 Q 431.72 601.24 428.47 601.58 Q 420.10 602.45 411.65 604.58 Q 402.59 606.86 395.72 610.58 Q 372.07 623.39 362.75 650.50 Q 359.47 660.04 358.50 666.00 Q 357.61 675.49 356.50 684.96 Q 343.03 686.10 329.50 686.00 Q 328.68 686.11 328.46 686.75 L 326.96 686.50 Q 319.31 666.06 308.06 648.19 Q 296.50 629.82 279.65 615.38 Q 271.12 608.07 262.06 601.42 Q 253.81 595.38 246.88 587.86 Q 243.27 583.93 240.84 579.17 Q 236.49 570.62 239.26 562.91 Q 241.18 557.59 248.59 551.02 Q 256.98 543.59 266.94 538.19 Q 267.91 537.66 268.54 536.75 Q 271.43 535.45 274.55 534.76 Q 300.41 529.03 324.50 518.31 Q 331.63 515.13 342.57 509.72 Q 378.97 491.73 411.97 467.98 Q 430.89 454.36 447.60 438.10 Q 454.98 430.92 460.49 422.38 Q 464.89 415.56 469.01 404.34 Q 473.38 392.42 477.75 378.25 Q 479.34 373.08 482.71 366.70 Q 488.36 356.00 492.67 344.68 Q 496.67 334.17 506.94 331.58 Q 509.83 330.85 513.03 331.74 Z"
     id="path285" />
  <path
     fill="rgb(195,13,59)"
     fill-opacity="1.000"
     d="M 183.44 396.52 Q 229.56 402.14 269.94 423.56 Q 276.11 426.83 282.93 431.65 Q 290.38 436.91 295.07 440.92 Q 309.65 453.39 318.04 471.00 Q 297.56 487.84 274.60 501.12 Q 250.21 515.23 224.67 527.15 Q 193.91 541.52 162.25 553.75 Q 156.15 556.11 144.45 559.57 Q 119.64 566.93 94.75 573.99 Q 82.54 577.46 70.83 582.36 Q 68.38 583.38 66.21 585.68 A 1.55 1.55 -53.7 0 0 66.58 588.09 Q 70.12 590.10 74.50 590.47 Q 81.42 591.04 88.23 589.65 Q 100.92 587.04 112.94 582.19 Q 121.81 578.60 148.13 567.27 Q 159.37 562.43 166.70 559.88 Q 186.25 553.08 206.56 548.81 Q 236.44 542.86 266.31 536.84 Q 266.37 536.83 267.15 536.54 Q 267.84 536.30 268.54 536.75 Q 267.91 537.66 266.94 538.19 Q 256.98 543.59 248.59 551.02 Q 241.18 557.59 239.26 562.91 Q 236.49 570.62 240.84 579.17 Q 243.27 583.93 246.88 587.86 Q 253.81 595.38 262.06 601.42 Q 271.12 608.07 279.65 615.38 Q 296.50 629.82 308.06 648.19 Q 319.31 666.06 326.96 686.50 Q 322.95 689.16 319.00 686.29 Q 315.25 684.06 311.20 684.80 Q 307.79 685.42 306.57 685.40 Q 295.27 685.18 284.00 684.25 Q 270.21 678.58 255.32 678.27 Q 255.12 678.26 251.67 678.39 Q 249.83 678.46 248.00 678.23 Q 217.63 674.39 187.77 667.66 Q 162.24 661.90 137.59 653.13 Q 115.16 645.15 95.52 631.73 Q 78.22 619.91 63.10 605.40 Q 39.96 583.21 25.79 554.76 Q 22.07 547.29 17.98 536.36 Q 13.09 523.30 8.06 507.94 Q 4.22 496.19 2.54 485.50 L 1.29 473.50 L 1.29 467.50 L 2.71 451.00 Q 3.32 444.70 6.79 439.50 Q 39.89 424.77 73.85 412.16 Q 99.81 402.52 123.81 397.56 Q 143.09 393.58 163.54 394.67 Q 171.97 395.12 183.44 396.52 Z"
     id="path287" />
  <path
     fill="rgb(226,21,72)"
     fill-opacity="1.000"
     d="M 621.21 427.75 L 623.29 435.75 L 624.21 440.25 Q 624.77 450.50 624.21 460.75 Q 622.29 480.40 620.81 488.56 Q 609.21 552.47 563.93 598.69 Q 548.72 614.22 532.69 625.69 Q 454.38 681.73 357.00 685.18 A 0.48 0.07 29.5 0 1 356.67 685.05 L 356.50 684.96 Q 357.61 675.49 358.50 666.00 Q 359.47 660.04 362.75 650.50 Q 372.07 623.39 395.72 610.58 Q 402.59 606.86 411.65 604.58 Q 420.10 602.45 428.47 601.58 Q 431.72 601.24 432.25 598.02 Q 433.17 592.37 432.63 586.76 Q 432.26 582.88 430.70 575.76 Q 428.84 567.27 425.57 559.18 Q 423.34 553.64 421.19 548.06 Q 418.38 540.77 418.76 530.00 Q 419.21 517.02 423.59 504.83 Q 429.49 488.43 442.38 477.81 Q 449.37 472.05 459.51 467.64 Q 470.22 462.99 482.50 460.50 Q 486.90 459.61 490.70 456.91 Q 492.46 455.67 497.02 450.80 Q 528.43 417.30 575.00 414.50 Q 600.31 412.98 621.21 427.75 Z"
     id="path289" />
</svg>
