<?xml version="1.0" encoding="UTF-8" standalone="no"?>
<!DOCTYPE svg PUBLIC "-//W3C//DTD SVG 1.1//EN" "http://www.w3.org/Graphics/SVG/1.1/DTD/svg11.dtd">
<svg xmlns="http://www.w3.org/2000/svg" version="1.1" viewBox="0 0 753 790">
<path fill="rgb(255,255,255)" fill-opacity="1.000" d="M 0.00 0.00 Q 376.16 0.00 752.31 0.00 Q 751.41 1.61 751.75 3.50 Q 751.75 393.10 751.75 782.71 Q 746.88 782.37 742.00 782.50 Q 742.00 782.50 2.00 782.50 Q 0.61 782.50 0.00 782.94 Q 0.00 391.47 0.00 0.00 Z M 345.75 15.46 Q 334.48 14.74 328.31 23.81 Q 318.16 37.37 308.75 51.46 Q 295.83 68.68 284.19 82.69 Q 280.79 86.77 280.00 91.71 Q 240.68 93.73 220.25 94.25 Q 198.11 94.82 176.00 96.00 Q 165.28 96.28 150.75 98.25 Q 128.80 101.23 110.90 112.43 Q 103.79 116.88 99.69 121.85 Q 94.97 127.58 92.25 134.71 Q 83.66 150.67 82.04 168.75 Q 80.66 179.53 80.50 185.00 Q 80.29 192.16 80.38 208.19 Q 80.38 208.27 80.24 224.68 Q 80.13 237.61 81.29 250.50 Q 81.68 294.76 82.86 339.00 Q 83.61 367.04 84.00 369.50 Q 84.33 371.61 86.29 375.50 Q 86.65 377.32 86.63 379.16 Q 86.59 381.24 86.89 382.79 Q 88.94 393.69 83.52 403.48 Q 81.75 406.68 81.19 408.94 Q 79.91 414.04 79.08 420.23 Q 78.17 427.09 76.91 431.47 Q 73.27 444.09 68.06 457.81 Q 59.18 481.21 52.15 498.31 Q 47.55 509.52 42.07 520.32 Q 34.27 535.68 30.60 552.52 A 1.58 0.77 53.3 0 0 30.77 553.43 L 32.04 556.20 A 0.35 0.32 -9.8 0 1 31.69 556.65 Q 29.51 556.58 28.10 557.85 Q 27.02 558.83 26.87 561.04 Q 26.60 565.02 26.46 569.00 Q 24.34 577.90 25.32 587.68 Q 25.52 589.67 24.38 588.03 L 22.96 585.98 A 0.93 0.85 70.5 0 0 22.19 585.57 Q 15.30 585.82 15.70 593.00 Q 15.89 596.32 14.06 598.81 Q 10.64 603.47 9.29 608.79 Q 8.14 613.30 7.88 618.23 Q 7.64 622.79 8.69 627.81 Q 10.28 635.43 12.06 640.19 Q 12.81 642.19 19.02 657.34 Q 20.08 659.95 22.09 661.91 Q 28.11 667.79 33.60 674.17 Q 39.28 680.78 42.06 682.94 Q 48.63 688.03 53.31 694.90 Q 55.43 698.02 56.81 699.19 Q 63.62 704.92 76.23 714.18 Q 76.31 714.23 83.13 719.48 Q 88.24 723.41 93.88 726.58 Q 96.62 728.12 102.06 731.94 Q 115.68 741.49 133.07 747.41 Q 138.69 749.32 144.20 751.52 Q 156.76 756.52 169.87 759.68 Q 174.41 760.77 181.77 761.43 Q 187.79 761.96 193.76 762.92 Q 200.98 764.07 208.25 764.71 Q 227.77 766.43 247.27 768.33 Q 267.35 770.30 270.25 770.00 Q 278.16 769.19 285.99 770.58 Q 293.44 771.91 301.00 772.50 Q 304.08 772.96 307.00 773.99 Q 315.03 776.80 323.42 776.55 Q 331.51 776.31 331.59 776.31 Q 337.82 776.28 344.01 775.56 Q 355.35 774.24 366.75 774.00 Q 372.27 773.88 386.74 774.42 Q 407.11 775.18 427.50 775.08 Q 444.05 775.00 445.00 774.98 Q 453.75 774.82 462.48 774.06 Q 466.81 773.69 471.00 772.50 Q 485.24 771.57 499.50 771.25 Q 510.39 770.39 521.25 769.25 Q 539.72 767.91 556.81 760.81 Q 581.10 755.45 605.25 749.50 Q 612.03 748.27 618.39 745.77 Q 620.70 744.87 628.63 740.44 Q 633.89 737.50 639.55 735.37 Q 645.16 733.26 650.44 730.43 Q 667.72 721.17 684.58 711.15 Q 688.55 708.79 692.25 705.49 Q 697.86 700.50 699.56 699.31 Q 712.42 690.32 724.19 676.44 Q 740.35 657.36 745.64 634.27 Q 748.11 623.50 746.75 616.25 Q 745.42 609.17 746.00 602.00 Q 745.24 596.49 743.19 593.56 Q 741.36 590.96 736.50 587.46 Q 737.92 579.11 739.23 570.75 Q 740.40 563.30 738.50 556.00 Q 738.30 550.43 737.38 544.93 Q 735.00 530.78 732.13 516.72 Q 729.59 504.31 724.67 492.64 Q 723.74 490.45 721.06 486.94 Q 717.71 482.54 717.30 476.55 Q 717.09 473.54 716.34 471.61 Q 712.06 460.59 706.75 450.03 Q 698.73 434.12 686.34 421.35 A 1.28 1.19 24.4 0 1 685.98 420.49 Q 685.95 416.51 690.00 415.46 L 691.00 415.46 Q 693.18 415.46 695.01 414.54 Q 696.58 413.75 697.69 411.68 Q 701.25 405.04 701.93 397.46 Q 701.93 397.39 702.19 395.55 Q 702.47 393.49 701.69 391.53 Q 701.27 390.49 700.97 392.39 A 0.52 0.51 22.9 0 1 700.15 392.72 Q 697.65 390.83 697.04 388.00 L 701.32 388.32 A 0.48 0.42 -1.1 0 0 701.84 387.84 Q 699.85 374.70 690.96 365.75 Q 691.52 364.74 691.00 363.75 Q 690.06 356.96 688.71 350.25 Q 688.60 345.72 685.71 342.25 Q 686.81 340.87 685.96 339.25 Q 678.88 250.53 667.50 162.25 Q 664.32 128.48 644.44 103.06 Q 639.84 97.19 631.50 93.29 Q 620.74 87.93 609.00 85.29 Q 594.05 80.79 576.25 81.25 Q 520.22 82.69 462.91 85.82 Q 461.16 85.92 461.25 83.87 L 461.46 79.00 Q 460.27 72.56 454.54 69.50 L 447.00 64.71 Q 421.35 45.09 398.69 29.06 Q 393.71 25.54 387.46 26.50 Q 382.20 26.51 377.75 29.29 L 372.55 30.88 Q 369.94 31.68 368.74 29.79 Q 366.42 26.13 363.94 23.31 Q 356.76 15.16 345.75 15.46 Z"/>
<path fill="rgb(203,203,205)" fill-opacity="1.000" d="M 752.31 0.00 Q 752.66 0.00 753.00 0.00 Q 753.00 1.28 753.00 2.56 Q 752.37 5.81 753.00 9.06 Q 753.00 9.94 753.00 10.81 Q 752.57 10.95 752.75 11.50 Q 752.75 11.50 752.75 645.50 Q 752.75 646.13 753.00 646.31 Q 753.00 647.06 753.00 647.81 Q 752.57 647.95 752.75 648.50 Q 752.75 711.50 752.77 774.50 Q 752.77 774.74 753.00 774.81 Q 753.00 779.19 753.00 783.56 Q 752.75 783.48 752.71 783.75 Q 751.84 783.75 751.75 782.71 Q 751.75 393.10 751.75 3.50 Q 751.41 1.61 752.31 0.00 Z"/>
<path fill="rgb(255,255,255)" fill-opacity="1.000" d="M 753.00 2.56 Q 753.00 5.81 753.00 9.06 Q 752.37 5.81 753.00 2.56 Z"/>
<path fill="rgb(255,255,255)" fill-opacity="1.000" d="M 753.00 10.81 Q 753.00 328.56 753.00 646.31 Q 752.75 646.13 752.75 645.50 Q 752.75 11.50 752.75 11.50 Q 752.57 10.95 753.00 10.81 Z"/>
<path fill="rgb(160,155,142)" fill-opacity="1.000" d="M 363.94 23.31 Q 366.42 26.13 368.74 29.79 Q 369.94 31.68 372.55 30.88 L 377.75 29.29 Q 376.07 33.16 373.46 36.50 Q 371.79 36.34 369.86 34.53 A 0.59 0.59 -59.9 0 0 368.89 34.79 Q 367.38 39.68 363.29 41.75 Q 362.89 39.08 361.27 37.00 Q 360.63 36.18 359.84 36.03 Q 358.90 35.86 358.00 36.29 Q 355.22 35.91 352.75 34.54 Q 352.95 31.53 349.75 31.71 Q 347.49 26.44 341.71 26.50 Q 340.72 25.75 339.78 26.05 Q 339.13 26.27 338.61 27.31 Q 336.42 31.71 332.94 35.94 Q 312.30 60.96 293.50 82.04 Q 292.29 79.74 293.81 77.81 Q 302.32 67.09 319.00 47.04 Q 328.40 36.84 336.04 25.25 L 336.50 24.29 Q 343.44 21.34 350.60 21.97 Q 352.70 22.15 351.76 20.27 Q 349.86 16.47 345.50 16.96 Q 344.87 15.96 345.75 15.46 Q 356.76 15.16 363.94 23.31 Z"/>
<path fill="rgb(142,135,115)" fill-opacity="1.000" d="M 345.75 15.46 Q 344.87 15.96 345.50 16.96 Q 337.44 16.37 334.44 23.30 A 0.42 0.40 18.7 0 0 334.73 23.85 L 336.50 24.29 L 336.04 25.25 Q 335.34 24.82 334.55 24.79 A 1.14 0.93 -65.5 0 0 333.74 25.19 Q 325.14 35.17 318.46 46.50 Q 314.54 48.45 310.94 50.94 Q 309.91 51.51 308.75 51.46 Q 318.16 37.37 328.31 23.81 Q 334.48 14.74 345.75 15.46 Z"/>
<path fill="rgb(88,80,62)" fill-opacity="1.000" d="M 345.50 16.96 Q 349.86 16.47 351.76 20.27 Q 352.70 22.15 350.60 21.97 Q 343.44 21.34 336.50 24.29 L 334.73 23.85 A 0.42 0.40 18.7 0 1 334.44 23.30 Q 337.44 16.37 345.50 16.96 Z"/>
<path fill="rgb(111,97,74)" fill-opacity="1.000" d="M 334.55 24.79 Q 335.34 24.82 336.04 25.25 Q 328.40 36.84 319.00 47.04 Q 318.42 47.08 318.46 46.50 Q 325.14 35.17 333.74 25.19 A 1.14 0.93 -65.5 0 1 334.55 24.79 Z"/>
<path fill="rgb(88,80,62)" fill-opacity="1.000" d="M 341.71 26.50 Q 343.24 30.53 346.88 32.69 A 1.36 1.12 50.5 0 0 347.80 32.87 Q 348.94 32.63 349.75 31.71 Q 352.95 31.53 352.75 34.54 Q 349.37 35.29 350.94 37.29 Q 351.64 38.19 352.95 38.70 Q 355.12 39.55 358.23 39.88 A 0.64 0.62 -5.6 0 0 358.91 39.08 L 358.00 36.29 Q 358.90 35.86 359.84 36.03 Q 360.63 36.18 361.27 37.00 Q 362.89 39.08 363.29 41.75 Q 362.85 43.23 363.25 44.71 L 361.04 46.50 Q 358.97 44.23 356.94 46.69 Q 354.10 50.11 348.92 52.77 Q 345.14 54.71 342.59 56.51 Q 339.74 58.53 336.06 60.81 Q 329.44 64.93 322.77 71.36 Q 322.53 71.60 322.28 71.63 Q 321.64 71.71 322.26 70.76 Q 325.27 66.17 329.78 63.04 Q 331.13 62.11 332.04 60.75 Q 338.87 56.46 343.94 50.19 Q 345.54 48.85 345.93 46.85 Q 346.24 45.28 344.83 46.05 Q 336.18 50.84 330.96 59.25 L 305.00 82.46 Q 293.07 89.78 292.00 90.00 Q 286.93 91.04 290.29 87.25 L 293.50 82.04 Q 312.30 60.96 332.94 35.94 Q 336.42 31.71 338.61 27.31 Q 339.13 26.27 339.78 26.05 Q 340.72 25.75 341.71 26.50 Z M 321.54 55.25 Q 310.27 66.03 300.40 78.10 Q 299.64 79.02 299.38 79.63 Q 298.56 81.53 300.72 81.45 A 2.40 2.40 22.4 0 0 302.33 80.76 Q 321.81 61.61 338.84 43.85 Q 338.89 43.79 341.95 40.98 Q 343.54 39.50 344.74 37.67 A 1.49 1.23 -36.3 0 0 344.97 36.75 Q 344.73 34.72 342.54 34.25 Q 339.96 32.11 338.31 35.06 Q 329.69 44.96 321.54 55.25 Z"/>
<path fill="rgb(245,245,245)" fill-opacity="1.000" d="M 349.75 31.71 Q 348.94 32.63 347.80 32.87 A 1.36 1.12 50.5 0 1 346.88 32.69 Q 343.24 30.53 341.71 26.50 Q 347.49 26.44 349.75 31.71 Z"/>
<path fill="rgb(142,135,115)" fill-opacity="1.000" d="M 398.69 29.06 Q 421.35 45.09 447.00 64.71 Q 443.60 64.95 440.19 62.06 Q 436.99 59.35 417.35 46.97 Q 417.34 46.97 405.41 39.18 Q 398.72 34.81 391.70 30.99 A 1.31 1.18 49.4 0 0 390.77 30.87 Q 387.44 31.72 384.77 33.91 A 0.88 0.43 -44.1 0 1 384.03 34.15 Q 383.81 34.05 383.71 33.75 L 388.69 30.94 Q 391.62 29.28 388.50 27.50 Q 387.86 27.13 387.46 26.50 Q 393.71 25.54 398.69 29.06 Z"/>
<path fill="rgb(77,70,59)" fill-opacity="1.000" d="M 387.46 26.50 Q 387.86 27.13 388.50 27.50 Q 391.62 29.28 388.69 30.94 L 383.71 33.75 Q 383.31 33.67 383.21 34.00 Q 379.88 34.01 377.93 36.42 A 0.86 0.86 -64.4 0 0 378.42 37.81 Q 384.04 38.98 387.94 42.93 Q 389.65 44.66 390.87 45.10 Q 392.36 45.64 394.50 46.00 Q 396.62 46.36 399.59 48.45 Q 406.79 53.54 414.55 57.71 Q 427.63 64.75 441.00 71.21 L 452.50 83.04 Q 453.01 86.63 456.46 85.81 A 0.44 0.42 72.0 0 0 456.74 85.22 Q 454.01 78.53 461.46 79.00 L 461.25 83.87 Q 461.16 85.92 462.91 85.82 Q 520.22 82.69 576.25 81.25 Q 594.05 80.79 609.00 85.29 L 608.71 87.75 Q 593.91 84.46 578.75 84.25 Q 532.98 86.43 487.18 87.75 Q 487.12 87.75 468.83 88.08 Q 457.66 88.29 446.50 89.00 Q 431.00 88.82 415.50 89.29 Q 403.26 90.08 391.00 90.00 Q 375.94 90.97 360.85 91.19 Q 358.67 91.23 350.67 91.72 Q 345.15 92.05 340.44 91.56 Q 337.24 91.23 339.00 88.71 Q 370.75 87.39 402.50 86.00 Q 412.06 85.95 421.54 84.75 L 430.57 85.84 A 1.28 1.22 13.0 0 0 431.91 85.05 Q 432.96 82.18 430.25 81.00 Q 418.76 75.39 407.11 70.10 Q 407.07 70.08 398.95 66.25 Q 389.87 61.96 380.21 59.12 Q 377.36 58.29 375.48 55.83 Q 373.89 53.76 376.45 53.22 Q 377.43 53.02 379.20 53.34 A 0.72 0.59 14.9 0 0 379.95 53.00 Q 380.15 52.52 379.81 52.19 Q 375.49 47.93 369.04 45.50 Q 369.37 43.59 370.73 42.23 Q 373.11 39.87 373.46 36.50 Q 376.07 33.16 377.75 29.29 Q 382.20 26.51 387.46 26.50 Z M 378.8309 44.9252 A 1.89 1.20 102.5 0 0 380.4116 43.3397 A 1.89 1.20 102.5 0 0 379.6491 41.2348 A 1.89 1.20 102.5 0 0 378.0685 42.8203 A 1.89 1.20 102.5 0 0 378.8309 44.9252 Z M 444.35 81.49 A 1.00 0.99 -11.9 0 1 443.52 82.75 L 437.74 83.49 Q 434.32 83.93 437.73 84.50 Q 444.27 85.59 451.30 84.49 Q 452.14 84.35 451.56 83.73 Q 448.93 80.88 446.17 78.70 Q 443.92 76.92 439.87 74.97 Q 411.98 61.51 384.04 46.72 Q 382.46 45.89 381.07 46.99 Q 379.85 47.97 380.02 48.95 Q 380.15 49.68 381.31 50.20 Q 412.31 63.91 442.31 79.69 Q 443.99 80.31 444.35 81.49 Z"/>
<path fill="rgb(111,97,74)" fill-opacity="1.000" d="M 391.70 30.99 Q 398.72 34.81 405.41 39.18 Q 417.34 46.97 417.35 46.97 Q 436.99 59.35 440.19 62.06 Q 443.60 64.95 447.00 64.71 L 454.54 69.50 Q 452.81 72.23 449.75 73.29 L 442.25 69.21 Q 427.61 59.82 412.81 50.69 Q 399.02 42.00 384.30 34.97 Q 383.61 34.64 383.21 34.00 Q 383.31 33.67 383.71 33.75 Q 383.81 34.05 384.03 34.15 A 0.88 0.43 -44.1 0 0 384.77 33.91 Q 387.44 31.72 390.77 30.87 A 1.31 1.18 49.4 0 1 391.70 30.99 Z"/>
<path fill="rgb(120,112,93)" fill-opacity="1.000" d="M 342.54 34.25 Q 345.19 37.19 342.76 39.18 Q 341.06 40.57 341.01 40.62 Q 332.98 48.70 324.72 57.17 A 0.39 0.39 -37.2 0 1 324.10 57.09 Q 323.12 55.38 321.54 55.25 Q 329.69 44.96 338.31 35.06 Q 339.96 32.11 342.54 34.25 Z"/>
<path fill="rgb(160,155,142)" fill-opacity="1.000" d="M 383.21 34.00 Q 383.61 34.64 384.30 34.97 Q 399.02 42.00 412.81 50.69 Q 427.61 59.82 442.25 69.21 Q 441.00 69.75 441.00 71.21 Q 427.63 64.75 414.55 57.71 Q 406.79 53.54 399.59 48.45 Q 396.62 46.36 394.50 46.00 Q 392.36 45.64 390.87 45.10 Q 389.65 44.66 387.94 42.93 Q 384.04 38.98 378.42 37.81 A 0.86 0.86 -64.4 0 1 377.93 36.42 Q 379.88 34.01 383.21 34.00 Z"/>
<path fill="rgb(135,121,101)" fill-opacity="1.000" d="M 342.54 34.25 Q 344.73 34.72 344.97 36.75 A 1.49 1.23 -36.3 0 1 344.74 37.67 Q 343.54 39.50 341.95 40.98 Q 338.89 43.79 338.84 43.85 Q 321.81 61.61 302.33 80.76 A 2.40 2.40 21.9 0 1 300.72 81.45 Q 298.56 81.53 299.38 79.63 Q 299.64 79.02 300.40 78.10 Q 310.27 66.03 321.54 55.25 Q 323.12 55.38 324.10 57.09 A 0.39 0.39 -37.2 0 0 324.72 57.17 Q 332.98 48.70 341.01 40.62 Q 341.06 40.57 342.76 39.18 Q 345.19 37.19 342.54 34.25 Z"/>
<path fill="rgb(135,121,101)" fill-opacity="1.000" d="M 369.86 34.53 Q 371.79 36.34 373.46 36.50 Q 373.11 39.87 370.73 42.23 Q 369.37 43.59 369.04 45.50 Q 365.85 50.46 363.25 44.71 Q 362.85 43.23 363.29 41.75 Q 367.38 39.68 368.89 34.79 A 0.59 0.59 -59.9 0 1 369.86 34.53 Z"/>
<path fill="rgb(235,233,232)" fill-opacity="1.000" d="M 352.75 34.54 Q 355.22 35.91 358.00 36.29 L 358.91 39.08 A 0.64 0.62 -5.6 0 1 358.23 39.88 Q 355.12 39.55 352.95 38.70 Q 351.64 38.19 350.94 37.29 Q 349.37 35.29 352.75 34.54 Z"/>
<ellipse fill="rgb(178,173,158)" fill-opacity="1.000" cx="0" cy="0" rx="1.89" ry="1.20" transform="translate(379.24,43.08) rotate(102.5)"/>
<path fill="rgb(51,40,25)" fill-opacity="1.000" d="M 363.25 44.71 Q 365.85 50.46 369.04 45.50 Q 375.49 47.93 379.81 52.19 Q 380.15 52.52 379.95 53.00 A 0.72 0.59 14.9 0 1 379.20 53.34 Q 377.43 53.02 376.45 53.22 Q 373.89 53.76 375.48 55.83 Q 377.36 58.29 380.21 59.12 Q 389.87 61.96 398.95 66.25 Q 407.07 70.08 407.11 70.10 Q 418.76 75.39 430.25 81.00 Q 432.96 82.18 431.91 85.05 A 1.28 1.22 13.0 0 1 430.57 85.84 L 421.54 84.75 Q 420.36 83.46 418.71 82.75 Q 419.53 79.22 416.69 77.56 Q 408.25 72.64 394.76 66.20 Q 392.13 64.95 390.54 65.11 Q 388.14 65.36 386.46 67.50 Q 381.07 65.19 376.00 62.25 Q 370.13 59.75 368.71 53.50 Q 369.88 49.83 366.56 49.36 A 1.66 1.45 -52.6 0 0 365.62 49.55 Q 358.60 53.32 354.21 60.02 Q 353.96 60.40 353.49 60.67 Q 351.41 61.85 351.04 64.25 L 350.00 65.04 Q 349.26 64.81 348.74 65.16 Q 348.12 65.58 348.08 65.60 Q 336.72 70.84 325.19 78.69 Q 319.87 82.31 317.00 87.46 Q 315.56 88.15 314.00 88.50 Q 307.08 89.41 300.25 90.79 Q 299.18 90.82 299.50 89.79 L 307.00 84.46 Q 324.11 74.17 340.38 62.61 Q 347.49 57.55 354.83 52.84 Q 358.65 50.38 361.04 46.50 L 363.25 44.71 Z"/>
<path fill="rgb(142,135,115)" fill-opacity="1.000" d="M 361.04 46.50 Q 358.65 50.38 354.83 52.84 Q 347.49 57.55 340.38 62.61 Q 324.11 74.17 307.00 84.46 Q 306.68 82.85 305.00 82.46 L 330.96 59.25 Q 331.33 60.11 332.04 60.75 Q 331.13 62.11 329.78 63.04 Q 325.27 66.17 322.26 70.76 Q 321.64 71.71 322.28 71.63 Q 322.53 71.60 322.77 71.36 Q 329.44 64.93 336.06 60.81 Q 339.74 58.53 342.59 56.51 Q 345.14 54.71 348.92 52.77 Q 354.10 50.11 356.94 46.69 Q 358.97 44.23 361.04 46.50 Z"/>
<path fill="rgb(245,245,245)" fill-opacity="1.000" d="M 344.83 46.05 Q 346.24 45.28 345.93 46.85 Q 345.54 48.85 343.94 50.19 Q 338.87 56.46 332.04 60.75 Q 331.33 60.11 330.96 59.25 Q 336.18 50.84 344.83 46.05 Z"/>
<path fill="rgb(135,121,101)" fill-opacity="1.000" d="M 318.46 46.50 Q 318.42 47.08 319.00 47.04 Q 302.32 67.09 293.81 77.81 Q 292.29 79.74 293.50 82.04 L 290.29 87.25 Q 289.55 86.69 289.03 87.54 Q 287.88 89.43 288.25 91.71 Q 284.13 92.82 280.00 91.71 Q 280.79 86.77 284.19 82.69 Q 295.83 68.68 308.75 51.46 Q 309.91 51.51 310.94 50.94 Q 314.54 48.45 318.46 46.50 Z"/>
<path fill="rgb(225,223,222)" fill-opacity="1.000" d="M 384.04 46.72 Q 411.98 61.51 439.87 74.97 Q 443.92 76.92 446.17 78.70 Q 448.93 80.88 451.56 83.73 Q 452.14 84.35 451.30 84.49 Q 444.27 85.59 437.73 84.50 Q 434.32 83.93 437.74 83.49 L 443.52 82.75 A 1.00 0.99 -11.9 0 0 444.35 81.49 Q 443.99 80.31 442.31 79.69 Q 412.31 63.91 381.31 50.20 Q 380.15 49.68 380.02 48.95 Q 379.85 47.97 381.07 46.99 Q 382.46 45.89 384.04 46.72 Z"/>
<path fill="rgb(88,80,62)" fill-opacity="1.000" d="M 366.56 49.36 Q 369.88 49.83 368.71 53.50 Q 359.05 57.50 351.04 64.25 Q 351.41 61.85 353.49 60.67 Q 353.96 60.40 354.21 60.02 Q 358.60 53.32 365.62 49.55 A 1.66 1.45 -52.6 0 1 366.56 49.36 Z"/>
<path fill="rgb(255,255,255)" fill-opacity="1.000" d="M 368.71 53.50 Q 370.13 59.75 376.00 62.25 Q 381.07 65.19 386.46 67.50 Q 402.23 75.87 418.71 82.75 Q 420.36 83.46 421.54 84.75 Q 412.06 85.95 402.50 86.00 Q 370.75 87.39 339.00 88.71 L 327.96 88.50 Q 325.53 88.62 323.29 87.75 L 350.00 65.04 L 351.04 64.25 Q 359.05 57.50 368.71 53.50 Z"/>
<path fill="rgb(88,80,62)" fill-opacity="1.000" d="M 350.00 65.04 L 323.29 87.75 Q 321.89 86.61 320.44 87.44 Q 318.65 88.46 317.00 87.46 Q 319.87 82.31 325.19 78.69 Q 336.72 70.84 348.08 65.60 Q 348.12 65.58 348.74 65.16 Q 349.26 64.81 350.00 65.04 Z"/>
<path fill="rgb(77,70,59)" fill-opacity="1.000" d="M 394.76 66.20 Q 408.25 72.64 416.69 77.56 Q 419.53 79.22 418.71 82.75 Q 402.23 75.87 386.46 67.50 Q 388.14 65.36 390.54 65.11 Q 392.13 64.95 394.76 66.20 Z"/>
<path fill="rgb(222,215,213)" fill-opacity="1.000" d="M 442.25 69.21 L 449.75 73.29 Q 451.14 76.79 453.44 79.81 Q 454.65 82.16 452.50 83.04 L 441.00 71.21 Q 441.00 69.75 442.25 69.21 Z"/>
<path fill="rgb(154,149,135)" fill-opacity="1.000" d="M 454.54 69.50 Q 460.27 72.56 461.46 79.00 Q 454.01 78.53 456.74 85.22 A 0.44 0.42 72.0 0 1 456.46 85.81 Q 453.01 86.63 452.50 83.04 Q 454.65 82.16 453.44 79.81 Q 451.14 76.79 449.75 73.29 Q 452.81 72.23 454.54 69.50 Z"/>
<path fill="rgb(178,173,158)" fill-opacity="1.000" d="M 305.00 82.46 Q 306.68 82.85 307.00 84.46 L 299.50 89.79 Q 294.12 91.99 288.25 91.71 Q 287.88 89.43 289.03 87.54 Q 289.55 86.69 290.29 87.25 Q 286.93 91.04 292.00 90.00 Q 293.07 89.78 305.00 82.46 Z"/>
<path fill="rgb(178,173,158)" fill-opacity="1.000" d="M 578.75 84.25 Q 593.91 84.46 608.71 87.75 Q 610.52 88.87 614.19 89.81 Q 619.45 91.16 628.25 96.29 Q 632.71 100.93 637.31 105.44 Q 654.93 123.52 658.00 147.00 Q 660.70 167.64 667.50 242.25 Q 670.19 271.77 677.75 332.77 Q 678.09 335.51 678.72 336.60 Q 679.71 338.30 681.74 339.42 A 1.61 1.58 -42.4 0 0 683.18 339.47 Q 685.08 338.59 685.96 339.25 Q 686.81 340.87 685.71 342.25 L 683.79 343.00 L 680.50 343.20 A 1.33 1.32 -28.7 0 1 679.60 342.94 Q 676.39 340.50 672.29 340.75 Q 671.20 338.84 670.50 336.75 Q 668.85 327.03 664.90 318.01 Q 663.03 313.73 661.86 309.22 Q 661.22 306.74 659.69 303.31 Q 650.25 282.22 644.81 258.44 Q 644.57 257.42 644.00 256.54 Q 645.53 252.81 644.81 247.44 Q 640.98 218.54 640.04 182.75 Q 646.86 162.16 640.26 141.46 Q 639.92 140.39 639.21 139.50 Q 637.31 123.94 627.55 111.70 Q 623.80 106.99 617.56 104.94 Q 603.16 100.21 591.75 97.54 Q 589.05 95.46 583.56 93.69 Q 566.75 88.26 551.00 90.50 Q 542.74 90.88 534.50 91.46 Q 524.24 91.50 514.00 92.00 Q 482.58 91.22 473.75 92.00 Q 456.50 93.52 439.25 92.00 Q 429.62 92.26 420.00 92.54 Q 418.51 92.68 417.52 91.69 A 1.44 1.43 70.9 0 0 416.68 91.28 Q 414.93 91.04 415.50 89.29 Q 431.00 88.82 446.50 89.00 Q 457.66 88.29 468.83 88.08 Q 487.12 87.75 487.18 87.75 Q 532.98 86.43 578.75 84.25 Z"/>
<path fill="rgb(135,121,101)" fill-opacity="1.000" d="M 609.00 85.29 Q 620.74 87.93 631.50 93.29 Q 630.24 95.16 628.25 96.29 Q 619.45 91.16 614.19 89.81 Q 610.52 88.87 608.71 87.75 L 609.00 85.29 Z"/>
<path fill="rgb(120,112,93)" fill-opacity="1.000" d="M 323.29 87.75 Q 325.53 88.62 327.96 88.50 L 329.44 90.81 Q 331.23 93.62 328.25 93.75 Q 315.15 94.34 302.04 93.78 Q 301.19 93.75 300.55 93.36 Q 299.87 92.96 299.25 92.46 Q 299.41 91.44 300.25 90.79 Q 307.08 89.41 314.00 88.50 Q 315.56 88.15 317.00 87.46 Q 318.65 88.46 320.44 87.44 Q 321.89 86.61 323.29 87.75 Z"/>
<path fill="rgb(154,149,135)" fill-opacity="1.000" d="M 339.00 88.71 Q 337.24 91.23 340.44 91.56 Q 345.15 92.05 350.67 91.72 Q 358.67 91.23 360.85 91.19 Q 375.94 90.97 391.00 90.00 Q 403.26 90.08 415.50 89.29 Q 414.93 91.04 416.68 91.28 A 1.44 1.43 70.9 0 1 417.52 91.69 Q 418.51 92.68 420.00 92.54 Q 402.01 93.65 384.00 94.50 Q 376.51 94.93 369.00 94.77 Q 357.83 94.53 346.75 96.00 Q 334.38 97.64 326.25 97.54 Q 319.01 96.97 311.75 97.00 Q 277.78 99.43 243.75 101.00 Q 215.03 102.79 186.25 102.50 Q 184.82 102.58 183.46 103.00 L 177.90 104.01 Q 177.16 104.14 176.93 104.13 Q 174.67 104.01 173.75 106.29 Q 167.72 106.13 161.75 107.00 Q 155.69 107.29 151.46 111.50 Q 149.84 111.43 148.81 112.31 Q 145.28 115.35 141.48 116.69 Q 129.89 120.78 119.72 127.52 Q 115.29 130.46 111.21 135.02 Q 104.00 143.08 97.46 151.70 Q 96.27 153.28 94.98 154.23 Q 93.54 155.28 94.06 153.58 Q 95.16 149.98 96.81 146.62 Q 97.03 146.18 96.98 145.84 Q 96.89 145.20 96.30 145.22 A 0.99 0.72 -73.0 0 0 95.58 145.76 Q 89.67 157.23 87.71 170.00 Q 86.79 170.20 86.94 169.24 Q 88.85 157.12 94.90 145.29 A 2.34 2.33 10.6 0 1 96.77 144.02 Q 98.14 143.90 99.06 142.31 Q 101.66 139.36 103.81 136.07 Q 107.16 130.94 111.59 126.76 Q 111.64 126.71 112.03 125.97 L 112.25 125.54 Q 122.36 123.73 122.44 123.69 Q 130.91 119.53 136.19 114.69 Q 142.98 108.45 148.06 105.31 Q 150.60 103.75 150.96 101.50 Q 168.90 99.49 184.75 99.00 Q 214.06 98.09 235.00 97.00 Q 261.40 96.48 287.75 94.75 Q 293.16 94.40 299.25 92.46 Q 299.87 92.96 300.55 93.36 Q 301.19 93.75 302.04 93.78 Q 315.15 94.34 328.25 93.75 Q 331.23 93.62 329.44 90.81 L 327.96 88.50 L 339.00 88.71 Z"/>
<path fill="rgb(77,70,59)" fill-opacity="1.000" d="M 299.50 89.79 Q 299.18 90.82 300.25 90.79 Q 299.41 91.44 299.25 92.46 Q 293.16 94.40 287.75 94.75 Q 261.40 96.48 235.00 97.00 Q 214.06 98.09 184.75 99.00 Q 168.90 99.49 150.96 101.50 Q 144.45 102.37 138.25 104.54 Q 118.84 109.18 104.04 122.50 L 103.21 123.50 Q 98.19 128.82 95.94 133.19 Q 94.64 135.71 92.25 134.71 Q 94.97 127.58 99.69 121.85 Q 103.79 116.88 110.90 112.43 Q 128.80 101.23 150.75 98.25 Q 165.28 96.28 176.00 96.00 Q 198.11 94.82 220.25 94.25 Q 240.68 93.73 280.00 91.71 Q 284.13 92.82 288.25 91.71 Q 294.12 91.99 299.50 89.79 Z"/>
<path fill="rgb(135,121,101)" fill-opacity="1.000" d="M 583.56 93.69 Q 589.05 95.46 591.75 97.54 Q 591.96 98.43 591.25 98.79 Q 590.55 98.34 588.81 97.94 Q 568.05 93.15 548.01 94.15 Q 543.52 94.37 539.44 92.55 Q 537.11 91.51 534.50 91.46 Q 542.74 90.88 551.00 90.50 Q 566.75 88.26 583.56 93.69 Z"/>
<path fill="rgb(83,69,39)" fill-opacity="1.000" d="M 534.50 91.46 Q 537.11 91.51 539.44 92.55 Q 543.52 94.37 548.01 94.15 Q 568.05 93.15 588.81 97.94 Q 590.55 98.34 591.25 98.79 Q 592.04 100.17 591.75 101.71 Q 590.52 102.19 589.28 102.01 Q 587.26 101.72 587.18 101.72 Q 579.08 101.54 571.24 103.29 Q 561.41 105.47 560.14 105.64 Q 553.48 106.54 546.75 106.71 Q 548.11 105.36 547.75 103.54 Q 551.57 102.64 555.50 102.75 Q 557.16 102.79 561.22 102.17 Q 561.72 102.09 566.29 101.89 Q 569.68 101.74 572.54 99.73 A 0.75 0.72 -25.2 0 0 572.84 98.94 Q 572.33 96.96 570.00 97.25 Q 569.39 97.33 566.00 97.29 Q 549.75 97.01 533.50 97.25 Q 513.40 95.29 512.25 95.25 Q 505.49 95.03 498.75 95.54 Q 493.26 95.14 487.75 95.25 Q 484.16 94.57 483.95 97.69 Q 483.92 98.08 483.62 98.58 L 483.21 99.25 Q 477.43 98.11 468.94 97.06 Q 465.14 96.59 465.16 99.56 A 0.68 0.64 7.5 0 0 465.67 100.19 Q 470.05 101.36 474.50 102.25 Q 475.89 102.75 477.00 103.71 Q 466.27 104.45 458.31 100.94 Q 448.08 96.42 440.49 95.12 Q 439.69 94.98 438.99 94.97 Q 435.19 94.93 438.56 96.94 Q 439.08 97.25 448.42 101.43 Q 448.49 101.46 452.05 103.15 Q 459.42 106.65 468.75 108.00 Q 484.52 110.28 497.25 110.04 Q 498.60 110.39 498.75 111.71 L 489.25 112.21 Q 472.23 112.59 455.25 113.68 Q 449.25 114.07 443.25 113.96 Q 443.25 113.55 442.96 113.25 L 442.55 109.29 A 0.88 0.72 8.6 0 0 441.96 108.64 Q 439.16 107.68 436.19 108.44 Q 428.94 108.92 421.75 110.00 Q 415.45 110.94 412.50 110.96 L 407.50 110.29 L 387.75 110.54 L 384.00 110.79 Q 382.28 111.24 380.50 111.24 Q 369.50 111.22 358.50 111.29 Q 350.84 111.00 343.25 112.04 L 322.50 113.54 L 320.50 113.79 Q 309.29 114.59 300.75 114.25 Q 298.81 114.17 297.75 114.54 Q 293.44 114.25 289.25 115.25 Q 284.24 114.82 284.00 119.71 L 252.75 120.71 Q 253.06 119.89 252.44 118.81 Q 251.18 116.62 250.29 112.75 Q 251.34 111.73 252.75 111.25 Q 265.85 109.03 278.54 105.12 Q 286.77 102.58 298.69 101.44 Q 311.48 100.21 322.26 102.88 A 1.14 1.03 31.5 0 0 323.16 102.71 Q 325.49 100.97 325.96 98.00 L 326.25 97.54 Q 334.38 97.64 346.75 96.00 Q 357.83 94.53 369.00 94.77 Q 376.51 94.93 384.00 94.50 Q 402.01 93.65 420.00 92.54 Q 429.62 92.26 439.25 92.00 Q 456.50 93.52 473.75 92.00 Q 482.58 91.22 514.00 92.00 Q 524.24 91.50 534.50 91.46 Z"/>
<path fill="rgb(154,149,135)" fill-opacity="1.000" d="M 631.50 93.29 Q 639.84 97.19 644.44 103.06 Q 664.32 128.48 667.50 162.25 Q 678.88 250.53 685.96 339.25 Q 685.08 338.59 683.18 339.47 A 1.61 1.58 -42.4 0 1 681.74 339.42 Q 679.71 338.30 678.72 336.60 Q 678.09 335.51 677.75 332.77 Q 670.19 271.77 667.50 242.25 Q 660.70 167.64 658.00 147.00 Q 654.93 123.52 637.31 105.44 Q 632.71 100.93 628.25 96.29 Q 630.24 95.16 631.50 93.29 Z"/>
<path fill="rgb(142,135,115)" fill-opacity="1.000" d="M 440.49 95.12 Q 448.08 96.42 458.31 100.94 Q 466.27 104.45 477.00 103.71 Q 487.20 104.00 491.31 104.94 Q 497.63 106.38 501.50 106.04 Q 514.95 106.59 519.25 106.25 Q 519.99 106.19 520.14 106.36 Q 520.48 106.75 519.56 106.75 Q 509.43 106.76 499.31 106.94 Q 496.78 106.57 497.34 108.74 Q 497.39 108.95 497.66 109.32 Q 498.07 109.89 497.25 110.04 Q 484.52 110.28 468.75 108.00 Q 459.42 106.65 452.05 103.15 Q 448.49 101.46 448.42 101.43 Q 439.08 97.25 438.56 96.94 Q 435.19 94.93 438.99 94.97 Q 439.69 94.98 440.49 95.12 Z"/>
<path fill="rgb(88,80,62)" fill-opacity="1.000" d="M 487.75 95.25 Q 493.26 95.14 498.75 95.54 Q 507.99 96.06 517.25 96.00 Q 526.96 97.68 536.81 97.77 Q 551.38 97.90 565.94 97.96 Q 567.93 97.97 566.00 97.29 Q 569.39 97.33 570.00 97.25 Q 572.33 96.96 572.84 98.94 A 0.75 0.72 -25.2 0 1 572.54 99.73 Q 569.68 101.74 566.29 101.89 Q 561.72 102.09 561.22 102.17 Q 557.16 102.79 555.50 102.75 Q 551.57 102.64 547.75 103.54 Q 540.69 104.12 534.75 103.75 Q 521.63 102.94 510.42 102.78 Q 507.61 102.75 502.12 102.24 Q 497.95 101.86 493.75 102.00 Q 488.35 101.09 483.21 99.25 L 483.62 98.58 Q 483.92 98.08 483.95 97.69 Q 484.16 94.57 487.75 95.25 Z"/>
<path fill="rgb(135,121,101)" fill-opacity="1.000" d="M 512.25 95.25 Q 513.40 95.29 533.50 97.25 Q 549.75 97.01 566.00 97.29 Q 567.93 97.97 565.94 97.96 Q 551.38 97.90 536.81 97.77 Q 526.96 97.68 517.25 96.00 Q 507.99 96.06 498.75 95.54 Q 505.49 95.03 512.25 95.25 Z"/>
<path fill="rgb(102,88,55)" fill-opacity="1.000" d="M 311.75 97.00 Q 319.01 96.97 326.25 97.54 L 325.96 98.00 Q 325.02 98.36 324.77 99.22 Q 324.40 100.54 324.37 100.59 Q 323.11 102.77 320.50 102.00 Q 309.23 98.69 298.50 101.00 Q 289.08 101.30 280.00 103.75 Q 272.88 106.06 265.65 107.98 Q 263.52 108.55 258.14 109.49 Q 253.87 110.24 250.69 111.44 Q 249.75 111.79 250.29 112.75 Q 251.18 116.62 252.44 118.81 Q 253.06 119.89 252.75 120.71 Q 230.77 121.94 208.75 122.25 Q 191.97 122.92 175.19 123.44 Q 160.70 124.13 146.79 128.25 Q 146.49 125.83 147.77 123.96 A 1.24 1.07 10.2 0 1 148.56 123.49 Q 159.94 121.82 171.23 119.65 Q 172.97 119.32 173.55 117.28 Q 174.10 115.37 172.12 115.24 Q 164.37 114.74 156.59 115.74 Q 154.17 116.05 153.03 115.33 Q 151.21 114.16 151.46 111.50 Q 155.69 107.29 161.75 107.00 Q 167.72 106.13 173.75 106.29 Q 178.80 107.18 183.75 108.50 Q 195.52 112.87 207.81 115.44 Q 211.58 116.23 213.56 117.94 Q 216.99 119.69 220.83 118.81 Q 223.60 118.17 221.28 116.52 Q 216.91 113.43 211.31 111.69 Q 206.12 107.74 199.75 106.50 Q 192.00 105.14 184.25 103.75 Q 183.82 103.67 183.46 103.00 Q 184.82 102.58 186.25 102.50 Q 215.03 102.79 243.75 101.00 Q 277.78 99.43 311.75 97.00 Z"/>
<path fill="rgb(51,40,25)" fill-opacity="1.000" d="M 468.94 97.06 Q 477.43 98.11 483.21 99.25 Q 488.35 101.09 493.75 102.00 Q 497.95 101.86 502.12 102.24 Q 507.61 102.75 510.42 102.78 Q 521.63 102.94 534.75 103.75 Q 540.69 104.12 547.75 103.54 Q 548.11 105.36 546.75 106.71 L 545.00 106.71 Q 523.26 105.67 501.50 106.04 Q 497.63 106.38 491.31 104.94 Q 487.20 104.00 477.00 103.71 Q 475.89 102.75 474.50 102.25 Q 470.05 101.36 465.67 100.19 A 0.68 0.64 7.5 0 1 465.16 99.56 Q 465.14 96.59 468.94 97.06 Z"/>
<path fill="rgb(111,97,74)" fill-opacity="1.000" d="M 591.75 97.54 Q 603.16 100.21 617.56 104.94 Q 623.80 106.99 627.55 111.70 Q 637.31 123.94 639.21 139.50 Q 637.17 154.44 638.25 169.50 Q 637.25 176.39 640.04 182.75 Q 640.98 218.54 644.81 247.44 Q 645.53 252.81 644.00 256.54 Q 641.69 254.58 642.79 251.75 Q 643.35 244.33 642.00 237.00 Q 639.22 205.56 635.29 174.25 Q 634.58 165.33 632.75 149.25 Q 629.16 117.73 599.00 109.71 Q 600.65 108.14 602.93 107.98 Q 605.35 107.81 605.54 107.75 Q 608.29 106.98 606.04 104.66 A 1.76 1.48 -11.9 0 0 605.20 104.21 Q 599.14 103.00 598.75 103.00 Q 595.11 103.03 591.75 101.71 Q 592.04 100.17 591.25 98.79 Q 591.96 98.43 591.75 97.54 Z"/>
<path fill="rgb(120,112,93)" fill-opacity="1.000" d="M 325.96 98.00 Q 325.49 100.97 323.16 102.71 A 1.14 1.03 31.5 0 1 322.26 102.88 Q 311.48 100.21 298.69 101.44 Q 286.77 102.58 278.54 105.12 Q 265.85 109.03 252.75 111.25 Q 251.34 111.73 250.29 112.75 Q 249.75 111.79 250.69 111.44 Q 253.87 110.24 258.14 109.49 Q 263.52 108.55 265.65 107.98 Q 272.88 106.06 280.00 103.75 Q 289.08 101.30 298.50 101.00 Q 309.23 98.69 320.50 102.00 Q 323.11 102.77 324.37 100.59 Q 324.40 100.54 324.77 99.22 Q 325.02 98.36 325.96 98.00 Z"/>
<path fill="rgb(178,173,158)" fill-opacity="1.000" d="M 150.96 101.50 Q 150.60 103.75 148.06 105.31 Q 142.98 108.45 136.19 114.69 Q 130.91 119.53 122.44 123.69 Q 122.36 123.73 112.25 125.54 Q 110.02 126.19 107.81 125.79 A 1.79 1.32 65.0 0 1 106.97 125.33 Q 105.40 123.81 103.21 123.50 L 104.04 122.50 Q 104.66 122.56 105.14 122.91 A 0.85 0.72 48.6 0 0 105.95 123.03 Q 112.07 120.03 118.06 118.81 Q 130.72 116.24 137.94 105.94 Q 138.13 105.66 138.25 104.54 Q 144.45 102.37 150.96 101.50 Z"/>
<path fill="rgb(135,121,101)" fill-opacity="1.000" d="M 589.28 102.01 Q 590.52 102.19 591.75 101.71 Q 595.11 103.03 598.75 103.00 Q 599.14 103.00 605.20 104.21 A 1.76 1.48 -11.9 0 1 606.04 104.66 Q 608.29 106.98 605.54 107.75 Q 605.35 107.81 602.93 107.98 Q 600.65 108.14 599.00 109.71 Q 594.40 109.09 589.75 109.00 Q 586.97 108.60 585.84 111.67 A 2.10 2.09 -78.6 0 1 583.78 113.04 Q 563.37 112.08 543.76 113.40 Q 532.27 114.18 520.75 114.00 Q 519.16 114.12 517.71 113.50 L 519.00 111.04 L 534.75 107.59 A 1.48 0.88 -65.7 0 0 535.49 107.07 Q 535.97 106.46 537.00 106.75 Q 537.34 106.85 545.00 106.71 L 546.75 106.71 Q 553.48 106.54 560.14 105.64 Q 561.41 105.47 571.24 103.29 Q 579.08 101.54 587.18 101.72 Q 587.26 101.72 589.28 102.01 Z"/>
<path fill="rgb(142,135,115)" fill-opacity="1.000" d="M 183.46 103.00 Q 183.82 103.67 184.25 103.75 Q 192.00 105.14 199.75 106.50 Q 206.12 107.74 211.31 111.69 Q 216.91 113.43 221.28 116.52 Q 223.60 118.17 220.83 118.81 Q 216.99 119.69 213.56 117.94 Q 211.58 116.23 207.81 115.44 Q 195.52 112.87 183.75 108.50 Q 178.80 107.18 173.75 106.29 Q 174.67 104.01 176.93 104.13 Q 177.16 104.14 177.90 104.01 L 183.46 103.00 Z"/>
<path fill="rgb(154,149,135)" fill-opacity="1.000" d="M 138.25 104.54 Q 138.13 105.66 137.94 105.94 Q 130.72 116.24 118.06 118.81 Q 112.07 120.03 105.95 123.03 A 0.85 0.72 48.6 0 1 105.14 122.91 Q 104.66 122.56 104.04 122.50 Q 118.84 109.18 138.25 104.54 Z"/>
<path fill="rgb(111,97,74)" fill-opacity="1.000" d="M 501.50 106.04 Q 523.26 105.67 545.00 106.71 Q 537.34 106.85 537.00 106.75 Q 535.97 106.46 535.49 107.07 A 1.48 0.88 -65.7 0 1 534.75 107.59 L 519.00 111.04 Q 508.90 112.07 498.75 111.71 Q 498.60 110.39 497.25 110.04 Q 498.07 109.89 497.66 109.32 Q 497.39 108.95 497.34 108.74 Q 496.78 106.57 499.31 106.94 Q 509.43 106.76 519.56 106.75 Q 520.48 106.75 520.14 106.36 Q 519.99 106.19 519.25 106.25 Q 514.95 106.59 501.50 106.04 Z"/>
<path fill="rgb(120,112,93)" fill-opacity="1.000" d="M 442.55 109.29 L 442.96 113.25 Q 442.09 112.82 442.25 112.00 Q 443.00 108.22 439.25 109.00 Q 427.11 109.39 415.16 111.55 Q 414.51 111.67 413.70 111.56 Q 412.97 111.45 412.23 111.44 Q 411.58 111.43 411.90 111.05 Q 412.06 110.86 412.50 110.96 Q 415.45 110.94 421.75 110.00 Q 428.94 108.92 436.19 108.44 Q 439.16 107.68 441.96 108.64 A 0.88 0.72 8.6 0 1 442.55 109.29 Z"/>
<path fill="rgb(102,88,55)" fill-opacity="1.000" d="M 439.25 109.00 Q 443.00 108.22 442.25 112.00 Q 442.09 112.82 442.96 113.25 Q 443.25 113.55 443.25 113.96 Q 417.39 115.34 391.50 116.00 Q 337.76 118.00 284.00 119.71 Q 284.24 114.82 289.25 115.25 Q 293.44 114.25 297.75 114.54 Q 306.78 115.04 315.81 114.56 Q 318.31 114.83 320.50 113.79 L 322.50 113.54 Q 332.66 113.88 342.75 112.50 Q 343.34 112.61 343.25 112.04 Q 350.84 111.00 358.50 111.29 Q 352.92 111.63 356.75 111.71 Q 367.63 111.91 378.50 112.01 Q 381.43 112.03 384.00 110.79 L 387.75 110.54 Q 396.62 110.91 405.50 110.75 Q 406.70 111.06 407.50 110.29 L 412.50 110.96 Q 412.06 110.86 411.90 111.05 Q 411.58 111.43 412.23 111.44 Q 412.97 111.45 413.70 111.56 Q 414.51 111.67 415.16 111.55 Q 427.11 109.39 439.25 109.00 Z"/>
<path fill="rgb(217,234,233)" fill-opacity="1.000" d="M 589.75 109.00 Q 594.40 109.09 599.00 109.71 Q 629.16 117.73 632.75 149.25 Q 634.58 165.33 635.29 174.25 Q 634.50 174.59 633.75 174.29 A 0.37 0.35 14.4 0 0 633.25 174.57 Q 632.87 177.89 633.56 181.19 Q 636.35 210.49 639.50 239.75 Q 640.49 244.45 641.24 249.20 Q 641.30 249.63 641.62 250.07 L 642.79 251.75 Q 641.69 254.58 644.00 256.54 Q 644.57 257.42 644.81 258.44 Q 650.25 282.22 659.69 303.31 Q 661.22 306.74 661.86 309.22 Q 663.03 313.73 664.90 318.01 Q 668.85 327.03 670.50 336.75 Q 671.20 338.84 672.29 340.75 Q 673.49 345.76 671.00 350.08 A 1.08 0.99 50.8 0 0 670.95 350.96 L 674.06 358.67 A 1.57 1.47 -37.0 0 1 673.79 360.21 Q 671.32 363.16 671.79 367.00 Q 672.46 372.51 672.25 373.25 Q 671.73 375.07 672.32 376.78 A 1.09 1.09 50.8 0 1 672.23 377.66 Q 671.69 378.63 671.79 379.75 Q 671.09 387.73 666.54 394.30 Q 665.83 395.31 665.54 396.50 Q 665.52 397.92 666.56 399.44 Q 672.66 408.34 681.91 418.15 A 1.36 1.36 -37.6 0 0 683.61 418.37 Q 685.85 416.96 687.70 414.29 Q 687.72 414.26 688.04 413.52 Q 688.28 412.99 688.96 413.00 Q 689.12 414.39 690.00 415.46 Q 685.95 416.51 685.98 420.49 A 1.28 1.19 24.4 0 0 686.34 421.35 Q 698.73 434.12 706.75 450.03 Q 712.06 460.59 716.34 471.61 Q 717.09 473.54 717.30 476.55 Q 717.71 482.54 721.06 486.94 Q 723.74 490.45 724.67 492.64 Q 729.59 504.31 732.13 516.72 Q 735.00 530.78 737.38 544.93 Q 738.30 550.43 738.50 556.00 Q 740.40 563.30 739.23 570.75 Q 737.92 579.11 736.50 587.46 Q 732.14 603.51 725.73 618.85 Q 724.61 621.55 723.06 624.06 Q 711.70 648.70 693.93 669.02 Q 690.05 673.46 685.16 676.98 Q 674.29 684.81 662.56 691.32 Q 652.32 697.00 642.31 703.06 Q 626.89 712.41 610.00 718.75 Q 592.07 724.97 574.19 731.35 Q 564.69 734.74 550.75 736.50 Q 534.64 738.54 526.25 738.75 Q 483.01 740.55 439.75 741.56 Q 422.21 741.97 402.00 741.00 Q 371.58 739.53 349.25 738.00 Q 327.72 736.52 256.59 734.44 Q 256.52 734.44 243.41 734.34 Q 233.80 734.27 224.25 733.00 Q 222.87 732.82 220.32 731.50 Q 218.35 730.48 216.42 730.28 Q 190.88 727.55 165.25 725.75 Q 152.43 723.12 140.31 718.19 Q 113.67 706.97 86.80 696.29 Q 75.88 691.94 70.79 688.50 Q 60.48 681.53 52.44 670.56 Q 45.27 660.78 40.43 652.27 Q 37.25 646.68 34.84 639.11 Q 32.18 630.79 30.50 624.50 Q 26.66 610.13 27.75 594.50 Q 26.97 584.26 26.99 574.00 Q 27.00 573.16 26.63 571.55 Q 26.34 570.31 26.46 569.00 Q 26.60 565.02 26.87 561.04 Q 27.02 558.83 28.10 557.85 Q 29.51 556.58 31.69 556.65 A 0.35 0.32 -9.8 0 0 32.04 556.20 L 30.77 553.43 A 1.58 0.77 53.3 0 1 30.60 552.52 Q 34.27 535.68 42.07 520.32 Q 47.55 509.52 52.15 498.31 Q 59.18 481.21 68.06 457.81 Q 73.27 444.09 76.91 431.47 Q 78.17 427.09 79.08 420.23 Q 79.91 414.04 81.19 408.94 Q 81.75 406.68 83.52 403.48 Q 88.94 393.69 86.89 382.79 Q 86.59 381.24 86.63 379.16 Q 86.65 377.32 86.29 375.50 Q 86.05 372.07 88.04 369.25 Q 90.54 368.59 92.34 366.80 A 1.72 1.35 77.9 0 0 92.76 365.94 L 95.04 352.00 Q 96.41 351.38 97.00 350.00 Q 100.30 337.55 104.35 325.33 Q 109.78 308.90 114.46 292.25 Q 119.17 279.24 120.71 265.50 Q 121.31 210.73 121.00 175.50 Q 120.97 172.37 123.24 171.15 A 1.40 1.16 -8.0 0 0 123.87 170.46 Q 125.07 167.10 125.00 163.00 Q 124.91 157.67 126.81 152.70 Q 128.49 148.31 132.54 144.25 Q 136.80 139.97 141.92 136.65 Q 144.35 135.08 147.18 134.39 Q 158.68 131.62 170.41 130.04 Q 171.38 129.91 171.78 129.40 Q 172.28 128.75 172.25 127.79 Q 176.06 128.03 179.75 127.00 Q 200.13 127.15 220.50 126.30 Q 233.62 125.75 246.75 125.75 Q 258.37 124.79 270.01 124.70 Q 278.01 124.63 287.97 124.10 Q 298.57 123.54 309.19 123.94 Q 322.66 122.21 336.25 122.75 Q 348.97 121.59 361.75 121.75 Q 372.58 120.34 383.50 120.75 Q 390.85 119.90 398.25 120.00 Q 423.45 118.79 448.66 118.05 Q 449.01 118.04 452.28 117.56 Q 453.91 117.31 456.00 117.50 Q 461.61 118.00 470.00 117.20 Q 471.47 117.06 472.79 117.56 A 1.31 1.22 42.2 0 0 473.70 117.55 Q 476.24 116.53 479.00 117.00 Q 484.76 116.32 490.54 116.03 Q 490.84 116.02 491.95 116.13 Q 493.48 116.28 493.00 114.79 Q 505.41 115.25 517.71 113.50 Q 519.16 114.12 520.75 114.00 Q 532.27 114.18 543.76 113.40 Q 563.37 112.08 583.78 113.04 A 2.10 2.09 -78.6 0 0 585.84 111.67 Q 586.97 108.60 589.75 109.00 Z M 60.28 528.91 Q 59.08 531.66 60.52 533.74 Q 61.45 535.08 62.12 533.60 Q 63.56 530.39 61.45 528.63 A 0.75 0.75 -58.3 0 0 60.28 528.91 Z"/>
<path fill="rgb(142,135,115)" fill-opacity="1.000" d="M 407.50 110.29 Q 406.70 111.06 405.50 110.75 Q 396.62 110.91 387.75 110.54 L 407.50 110.29 Z"/>
<path fill="rgb(142,135,115)" fill-opacity="1.000" d="M 384.00 110.79 Q 381.43 112.03 378.50 112.01 Q 367.63 111.91 356.75 111.71 Q 352.92 111.63 358.50 111.29 Q 369.50 111.22 380.50 111.24 Q 382.28 111.24 384.00 110.79 Z"/>
<path fill="rgb(210,190,192)" fill-opacity="1.000" d="M 519.00 111.04 L 517.71 113.50 Q 505.41 115.25 493.00 114.79 Q 492.46 111.53 489.25 112.21 L 498.75 111.71 Q 508.90 112.07 519.00 111.04 Z"/>
<path fill="rgb(120,112,93)" fill-opacity="1.000" d="M 151.46 111.50 Q 151.21 114.16 153.03 115.33 Q 154.17 116.05 156.59 115.74 Q 164.37 114.74 172.12 115.24 Q 174.10 115.37 173.55 117.28 Q 172.97 119.32 171.23 119.65 Q 159.94 121.82 148.56 123.49 A 1.24 1.07 10.2 0 0 147.77 123.96 Q 146.49 125.83 146.79 128.25 Q 138.86 130.73 133.21 136.75 Q 129.07 140.46 125.06 144.31 Q 122.86 146.14 122.46 149.00 Q 121.67 149.41 119.74 149.07 A 1.45 1.44 11.8 0 0 118.09 150.15 Q 116.16 157.93 109.78 166.05 Q 109.46 166.45 109.31 166.95 Q 108.68 169.07 109.50 169.29 Q 108.18 183.37 109.00 197.50 Q 109.19 211.97 109.84 226.42 Q 110.10 232.31 111.46 242.99 Q 112.47 250.89 113.25 261.00 Q 113.87 269.03 112.80 275.68 Q 112.58 277.07 111.32 279.38 Q 108.90 283.79 111.50 288.56 A 1.93 1.64 -62.2 0 1 111.71 289.50 Q 111.61 292.34 114.46 292.25 Q 109.78 308.90 104.35 325.33 Q 100.30 337.55 97.00 350.00 Q 96.41 351.38 95.04 352.00 L 95.00 310.04 Q 99.99 309.30 98.93 304.31 Q 98.20 300.89 98.33 297.42 Q 98.44 294.70 97.62 293.26 Q 96.34 290.99 94.04 289.50 L 91.71 198.25 Q 92.56 194.91 92.50 192.50 Q 92.28 183.66 93.75 176.25 Q 94.32 173.38 93.66 171.23 A 0.50 0.48 71.9 0 0 93.03 170.90 Q 90.03 172.00 90.00 175.50 Q 88.19 185.96 89.50 196.50 Q 89.72 198.26 90.46 198.75 Q 89.70 210.74 90.00 222.75 Q 89.12 234.61 89.25 246.50 Q 89.23 281.50 89.80 316.50 Q 90.09 334.50 90.00 352.50 Q 90.28 357.02 91.01 361.50 Q 91.69 365.65 88.44 367.19 Q 86.66 368.03 88.04 369.25 Q 86.05 372.07 86.29 375.50 Q 84.33 371.61 84.00 369.50 Q 83.61 367.04 82.86 339.00 Q 81.68 294.76 81.29 250.50 Q 82.14 250.31 82.30 249.51 Q 82.82 246.90 83.00 244.25 Q 83.00 234.23 83.00 224.20 Q 83.00 220.53 82.69 217.83 Q 82.33 214.65 81.75 211.50 Q 81.77 208.68 82.50 204.75 Q 83.03 201.92 83.06 198.43 Q 83.11 193.85 83.30 192.09 Q 84.40 181.89 87.21 172.00 L 87.71 170.00 Q 89.67 157.23 95.58 145.76 A 0.99 0.72 -73.0 0 1 96.30 145.22 Q 96.89 145.20 96.98 145.84 Q 97.03 146.18 96.81 146.62 Q 95.16 149.98 94.06 153.58 Q 93.54 155.28 94.98 154.23 Q 96.27 153.28 97.46 151.70 Q 104.00 143.08 111.21 135.02 Q 115.29 130.46 119.72 127.52 Q 129.89 120.78 141.48 116.69 Q 145.28 115.35 148.81 112.31 Q 149.84 111.43 151.46 111.50 Z M 98.72 269.19 Q 97.95 268.87 96.96 269.52 A 1.39 1.17 84.0 0 0 96.44 270.29 Q 95.26 275.34 96.25 278.75 Q 97.01 281.35 98.54 279.93 Q 99.19 279.32 99.48 278.24 Q 100.42 274.70 99.55 270.21 A 1.42 1.41 -84.4 0 0 98.72 269.19 Z M 98.81 317.94 Q 96.69 317.40 97.00 319.75 Q 97.00 319.75 97.00 321.64 Q 97.00 322.65 97.39 323.27 Q 98.46 324.94 99.56 322.31 Q 101.15 318.53 98.81 317.94 Z"/>
<path fill="rgb(135,121,101)" fill-opacity="1.000" d="M 343.25 112.04 Q 343.34 112.61 342.75 112.50 Q 332.66 113.88 322.50 113.54 L 343.25 112.04 Z"/>
<path fill="rgb(235,233,232)" fill-opacity="1.000" d="M 489.25 112.21 Q 492.46 111.53 493.00 114.79 Q 493.48 116.28 491.95 116.13 Q 490.84 116.02 490.54 116.03 Q 484.76 116.32 479.00 117.00 Q 476.24 116.53 473.70 117.55 A 1.31 1.22 42.2 0 1 472.79 117.56 Q 471.47 117.06 470.00 117.20 Q 461.61 118.00 456.00 117.50 Q 453.91 117.31 452.28 117.56 Q 449.01 118.04 448.66 118.05 Q 423.45 118.79 398.25 120.00 Q 390.85 119.90 383.50 120.75 Q 372.58 120.34 361.75 121.75 Q 348.97 121.59 336.25 122.75 Q 322.66 122.21 309.19 123.94 Q 298.57 123.54 287.97 124.10 Q 278.01 124.63 270.01 124.70 Q 258.37 124.79 246.75 125.75 Q 233.62 125.75 220.50 126.30 Q 200.13 127.15 179.75 127.00 Q 176.06 128.03 172.25 127.79 Q 151.36 126.53 133.75 137.54 Q 133.22 137.30 133.21 136.75 Q 138.86 130.73 146.79 128.25 Q 160.70 124.13 175.19 123.44 Q 191.97 122.92 208.75 122.25 Q 230.77 121.94 252.75 120.71 L 284.00 119.71 Q 337.76 118.00 391.50 116.00 Q 417.39 115.34 443.25 113.96 Q 449.25 114.07 455.25 113.68 Q 472.23 112.59 489.25 112.21 Z"/>
<path fill="rgb(120,112,93)" fill-opacity="1.000" d="M 320.50 113.79 Q 318.31 114.83 315.81 114.56 Q 306.78 115.04 297.75 114.54 Q 298.81 114.17 300.75 114.25 Q 309.29 114.59 320.50 113.79 Z"/>
<path fill="rgb(142,135,115)" fill-opacity="1.000" d="M 103.21 123.50 Q 105.40 123.81 106.97 125.33 A 1.79 1.32 65.0 0 0 107.81 125.79 Q 110.02 126.19 112.25 125.54 L 112.03 125.97 Q 111.64 126.71 111.59 126.76 Q 107.16 130.94 103.81 136.07 Q 101.66 139.36 99.06 142.31 Q 98.14 143.90 96.77 144.02 A 2.34 2.33 10.6 0 0 94.90 145.29 Q 88.85 157.12 86.94 169.24 Q 86.79 170.20 87.71 170.00 L 87.21 172.00 Q 86.09 172.59 85.94 173.74 Q 85.80 174.85 85.68 175.07 Q 85.28 175.75 84.49 175.94 A 0.62 0.56 73.0 0 1 83.82 175.54 Q 83.09 173.55 82.83 171.46 Q 82.81 171.35 82.87 170.06 Q 82.92 169.09 82.04 168.75 Q 83.66 150.67 92.25 134.71 Q 94.64 135.71 95.94 133.19 Q 98.19 128.82 103.21 123.50 Z"/>
<path fill="rgb(135,121,101)" fill-opacity="1.000" d="M 172.25 127.79 Q 172.28 128.75 171.78 129.40 Q 171.38 129.91 170.41 130.04 Q 158.68 131.62 147.18 134.39 Q 144.35 135.08 141.92 136.65 Q 136.80 139.97 132.54 144.25 Q 128.49 148.31 126.81 152.70 Q 124.91 157.67 125.00 163.00 Q 125.07 167.10 123.87 170.46 A 1.40 1.16 -8.0 0 1 123.24 171.15 Q 120.97 172.37 121.00 175.50 Q 121.31 210.73 120.71 265.50 Q 117.33 265.51 117.27 262.00 Q 117.17 255.86 117.75 249.75 Q 116.32 233.89 117.57 218.01 Q 118.09 211.37 117.51 204.75 Q 116.68 195.11 117.75 185.50 Q 117.98 174.75 118.25 164.00 Q 118.32 161.15 121.06 151.17 A 1.25 1.04 -57.0 0 0 120.95 150.25 Q 120.19 149.03 119.42 149.98 Q 118.67 150.90 118.30 152.04 Q 115.42 160.84 111.31 165.31 Q 110.53 166.16 109.50 169.29 Q 108.68 169.07 109.31 166.95 Q 109.46 166.45 109.78 166.05 Q 116.16 157.93 118.09 150.15 A 1.45 1.44 11.8 0 1 119.74 149.07 Q 121.67 149.41 122.46 149.00 Q 123.05 150.62 124.37 150.13 Q 125.08 149.87 125.60 148.84 Q 128.73 142.50 133.75 137.54 Q 151.36 126.53 172.25 127.79 Z"/>
<path fill="rgb(178,173,158)" fill-opacity="1.000" d="M 133.21 136.75 Q 133.22 137.30 133.75 137.54 Q 128.73 142.50 125.60 148.84 Q 125.08 149.87 124.37 150.13 Q 123.05 150.62 122.46 149.00 Q 122.86 146.14 125.06 144.31 Q 129.07 140.46 133.21 136.75 Z"/>
<path fill="rgb(135,121,101)" fill-opacity="1.000" d="M 639.21 139.50 Q 639.92 140.39 640.26 141.46 Q 646.86 162.16 640.04 182.75 Q 637.25 176.39 638.25 169.50 Q 637.17 154.44 639.21 139.50 Z"/>
<path fill="rgb(111,97,74)" fill-opacity="1.000" d="M 121.06 151.17 Q 118.32 161.15 118.25 164.00 Q 117.98 174.75 117.75 185.50 Q 116.68 195.11 117.51 204.75 Q 118.09 211.37 117.57 218.01 Q 116.32 233.89 117.75 249.75 Q 117.17 255.86 117.27 262.00 Q 117.33 265.51 120.71 265.50 Q 119.17 279.24 114.46 292.25 Q 111.61 292.34 111.71 289.50 A 1.93 1.64 -62.2 0 0 111.50 288.56 Q 108.90 283.79 111.32 279.38 Q 112.58 277.07 112.80 275.68 Q 113.87 269.03 113.25 261.00 Q 112.47 250.89 111.46 242.99 Q 110.10 232.31 109.84 226.42 Q 109.19 211.97 109.00 197.50 Q 108.18 183.37 109.50 169.29 Q 110.53 166.16 111.31 165.31 Q 115.42 160.84 118.30 152.04 Q 118.67 150.90 119.42 149.98 Q 120.19 149.03 120.95 150.25 A 1.25 1.04 -57.0 0 1 121.06 151.17 Z"/>
<path fill="rgb(160,155,142)" fill-opacity="1.000" d="M 82.04 168.75 Q 82.92 169.09 82.87 170.06 Q 82.81 171.35 82.83 171.46 Q 83.09 173.55 83.82 175.54 A 0.62 0.56 73.0 0 0 84.49 175.94 Q 85.28 175.75 85.68 175.07 Q 85.80 174.85 85.94 173.74 Q 86.09 172.59 87.21 172.00 Q 84.40 181.89 83.30 192.09 Q 83.11 193.85 83.06 198.43 Q 83.03 201.92 82.50 204.75 Q 81.77 208.68 81.75 211.50 Q 82.33 214.65 82.69 217.83 Q 83.00 220.53 83.00 224.20 Q 83.00 234.23 83.00 244.25 Q 82.82 246.90 82.30 249.51 Q 82.14 250.31 81.29 250.50 Q 80.13 237.61 80.24 224.68 Q 80.38 208.27 80.38 208.19 Q 80.29 192.16 80.50 185.00 Q 80.66 179.53 82.04 168.75 Z"/>
<path fill="rgb(160,155,142)" fill-opacity="1.000" d="M 93.66 171.23 Q 94.32 173.38 93.75 176.25 Q 92.28 183.66 92.50 192.50 Q 92.56 194.91 91.71 198.25 Q 90.82 198.05 90.46 198.75 Q 89.72 198.26 89.50 196.50 Q 88.19 185.96 90.00 175.50 Q 90.03 172.00 93.03 170.90 A 0.50 0.48 71.9 0 1 93.66 171.23 Z"/>
<path fill="rgb(210,190,192)" fill-opacity="1.000" d="M 633.75 174.29 Q 634.50 174.59 635.29 174.25 Q 639.22 205.56 642.00 237.00 Q 643.35 244.33 642.79 251.75 L 641.62 250.07 Q 641.30 249.63 641.24 249.20 Q 640.49 244.45 639.50 239.75 Q 636.35 210.49 633.56 181.19 Q 632.87 177.89 633.25 174.57 A 0.37 0.35 14.4 0 1 633.75 174.29 Z"/>
<path fill="rgb(245,245,245)" fill-opacity="1.000" d="M 91.71 198.25 L 94.04 289.50 Q 93.95 299.80 95.00 310.04 L 95.04 352.00 L 92.76 365.94 A 1.72 1.35 77.9 0 1 92.34 366.80 Q 90.54 368.59 88.04 369.25 Q 86.66 368.03 88.44 367.19 Q 91.69 365.65 91.01 361.50 Q 90.28 357.02 90.00 352.50 Q 90.09 334.50 89.80 316.50 Q 89.23 281.50 89.25 246.50 Q 89.12 234.61 90.00 222.75 Q 89.70 210.74 90.46 198.75 Q 90.82 198.05 91.71 198.25 Z"/>
<path fill="rgb(142,135,115)" fill-opacity="1.000" d="M 98.72 269.19 A 1.42 1.41 -84.4 0 1 99.55 270.21 Q 100.42 274.70 99.48 278.24 Q 99.19 279.32 98.54 279.93 Q 97.01 281.35 96.25 278.75 Q 95.26 275.34 96.44 270.29 A 1.39 1.17 84.0 0 1 96.96 269.52 Q 97.95 268.87 98.72 269.19 Z"/>
<path fill="rgb(154,149,135)" fill-opacity="1.000" d="M 94.04 289.50 Q 96.34 290.99 97.62 293.26 Q 98.44 294.70 98.33 297.42 Q 98.20 300.89 98.93 304.31 Q 99.99 309.30 95.00 310.04 Q 93.95 299.80 94.04 289.50 Z"/>
<path fill="rgb(142,135,115)" fill-opacity="1.000" d="M 98.81 317.94 Q 101.15 318.53 99.56 322.31 Q 98.46 324.94 97.39 323.27 Q 97.00 322.65 97.00 321.64 Q 97.00 319.75 97.00 319.75 Q 96.69 317.40 98.81 317.94 Z"/>
<path fill="rgb(160,155,142)" fill-opacity="1.000" d="M 672.29 340.75 Q 676.39 340.50 679.60 342.94 A 1.33 1.32 -28.7 0 0 680.50 343.20 L 683.79 343.00 Q 684.02 343.82 684.63 344.43 A 1.01 0.93 27.6 0 1 684.92 345.24 Q 684.34 349.67 688.71 350.25 Q 690.06 356.96 691.00 363.75 Q 691.52 364.74 690.96 365.75 L 689.29 365.75 Q 688.20 361.77 687.25 357.75 Q 686.79 355.78 685.00 355.92 A 0.58 0.54 87.9 0 0 684.50 356.50 Q 684.51 360.55 685.50 364.50 Q 687.78 378.20 690.28 391.86 Q 690.63 393.78 690.20 396.25 Q 689.77 398.74 690.00 400.75 Q 690.08 401.41 691.00 401.54 Q 691.27 407.55 688.96 413.00 Q 688.28 412.99 688.04 413.52 Q 687.72 414.26 687.70 414.29 Q 685.85 416.96 683.61 418.37 A 1.36 1.36 -37.6 0 1 681.91 418.15 Q 672.66 408.34 666.56 399.44 Q 665.52 397.92 665.54 396.50 Q 667.68 396.50 669.19 395.27 Q 671.66 393.25 671.72 393.21 Q 673.32 392.12 674.43 390.75 A 2.06 2.04 56.8 0 0 674.81 388.88 Q 673.82 385.41 673.18 382.94 Q 673.18 382.93 672.98 381.53 Q 672.82 380.38 671.79 379.75 Q 671.69 378.63 672.23 377.66 A 1.09 1.09 50.8 0 0 672.32 376.78 Q 671.73 375.07 672.25 373.25 Q 672.46 372.51 671.79 367.00 Q 671.32 363.16 673.79 360.21 A 1.57 1.47 -37.0 0 0 674.06 358.67 L 670.95 350.96 A 1.08 0.99 50.8 0 1 671.00 350.08 Q 673.49 345.76 672.29 340.75 Z M 677.67 345.80 Q 682.32 349.48 678.59 353.64 A 1.63 1.22 -28.0 0 0 678.19 354.49 Q 677.98 357.11 679.50 359.75 Q 681.70 363.58 681.00 368.50 Q 680.47 372.23 682.84 377.65 Q 682.95 377.88 683.03 378.39 Q 683.12 378.94 683.50 379.04 Q 684.08 379.18 683.79 378.55 Q 681.97 374.57 681.91 370.27 Q 681.85 365.76 681.85 365.74 Q 681.37 361.63 679.41 357.92 Q 678.15 355.52 679.44 353.19 Q 680.79 350.74 680.75 350.00 Q 680.54 346.35 677.97 345.29 Q 676.04 344.50 677.67 345.80 Z M 683.01 352.39 Q 682.75 353.26 683.45 353.56 A 0.35 0.33 -81.9 0 0 683.90 353.20 Q 683.57 348.78 683.24 351.46 Q 683.21 351.70 683.01 352.39 Z M 674.53 373.92 Q 677.82 373.07 679.93 377.39 Q 680.90 379.37 681.15 381.57 Q 681.23 382.25 682.72 382.78 A 0.71 0.67 28.3 0 0 683.51 382.57 Q 684.31 381.54 682.79 381.83 A 0.61 0.61 73.2 0 1 682.12 381.47 L 679.82 375.90 Q 678.96 373.80 676.77 373.25 Q 674.38 372.66 673.31 374.47 Q 673.18 374.68 673.19 374.94 Q 673.25 376.47 673.91 374.54 A 0.98 0.82 -85.0 0 1 674.53 373.92 Z M 685.08 388.45 Q 680.96 386.14 678.06 382.43 Q 677.03 381.12 676.99 382.78 Q 676.85 387.61 680.18 391.62 A 0.81 0.74 60.9 0 0 680.99 391.89 L 684.91 390.72 Q 687.66 389.89 685.08 388.45 Z M 686.05 395.31 Q 686.90 393.38 685.63 393.95 A 0.90 0.81 81.4 0 0 685.15 394.68 Q 684.98 397.73 686.05 395.31 Z"/>
<path fill="rgb(111,97,74)" fill-opacity="1.000" d="M 685.71 342.25 Q 688.60 345.72 688.71 350.25 Q 684.34 349.67 684.92 345.24 A 1.01 0.93 27.6 0 0 684.63 344.43 Q 684.02 343.82 683.79 343.00 L 685.71 342.25 Z"/>
<path fill="rgb(178,173,158)" fill-opacity="1.000" d="M 677.97 345.29 Q 680.54 346.35 680.75 350.00 Q 680.79 350.74 679.44 353.19 Q 678.15 355.52 679.41 357.92 Q 681.37 361.63 681.85 365.74 Q 681.85 365.76 681.91 370.27 Q 681.97 374.57 683.79 378.55 Q 684.08 379.18 683.50 379.04 Q 683.12 378.94 683.03 378.39 Q 682.95 377.88 682.84 377.65 Q 680.47 372.23 681.00 368.50 Q 681.70 363.58 679.50 359.75 Q 677.98 357.11 678.19 354.49 A 1.63 1.22 -28.0 0 1 678.59 353.64 Q 682.32 349.48 677.67 345.80 Q 676.04 344.50 677.97 345.29 Z"/>
<path fill="rgb(178,173,158)" fill-opacity="1.000" d="M 683.45 353.56 Q 682.75 353.26 683.01 352.39 Q 683.21 351.70 683.24 351.46 Q 683.57 348.78 683.90 353.20 A 0.35 0.33 -81.9 0 1 683.45 353.56 Z"/>
<path fill="rgb(222,215,213)" fill-opacity="1.000" d="M 687.25 357.75 Q 688.20 361.77 689.29 365.75 L 693.79 388.00 Q 694.85 391.58 693.28 394.88 A 1.80 1.64 57.4 0 0 693.12 395.81 Q 693.38 398.96 691.50 401.46 L 691.00 401.54 Q 690.08 401.41 690.00 400.75 Q 689.77 398.74 690.20 396.25 Q 690.63 393.78 690.28 391.86 Q 687.78 378.20 685.50 364.50 Q 684.51 360.55 684.50 356.50 A 0.58 0.54 87.9 0 1 685.00 355.92 Q 686.79 355.78 687.25 357.75 Z"/>
<path fill="rgb(111,97,74)" fill-opacity="1.000" d="M 689.29 365.75 L 690.96 365.75 Q 699.85 374.70 701.84 387.84 A 0.48 0.42 -1.1 0 1 701.32 388.32 L 697.04 388.00 Q 695.42 386.60 693.79 388.00 L 689.29 365.75 Z M 694.11 376.19 Q 693.52 380.18 695.40 383.77 Q 696.40 385.67 698.22 384.79 Q 700.02 383.92 698.85 382.29 Q 696.76 379.38 695.80 376.21 Q 695.65 375.71 695.43 375.49 Q 694.99 375.04 694.54 375.34 Q 694.20 375.57 694.11 376.19 Z"/>
<path fill="rgb(178,173,158)" fill-opacity="1.000" d="M 676.77 373.25 Q 678.96 373.80 679.82 375.90 L 682.12 381.47 A 0.61 0.61 73.2 0 0 682.79 381.83 Q 684.31 381.54 683.51 382.57 A 0.71 0.67 28.3 0 1 682.72 382.78 Q 681.23 382.25 681.15 381.57 Q 680.90 379.37 679.93 377.39 Q 677.82 373.07 674.53 373.92 A 0.98 0.82 -85.0 0 0 673.91 374.54 Q 673.25 376.47 673.19 374.94 Q 673.18 374.68 673.31 374.47 Q 674.38 372.66 676.77 373.25 Z"/>
<path fill="rgb(203,203,205)" fill-opacity="1.000" d="M 695.80 376.21 Q 696.76 379.38 698.85 382.29 Q 700.02 383.92 698.22 384.79 Q 696.40 385.67 695.40 383.77 Q 693.52 380.18 694.11 376.19 Q 694.20 375.57 694.54 375.34 Q 694.99 375.04 695.43 375.49 Q 695.65 375.71 695.80 376.21 Z"/>
<path fill="rgb(102,88,55)" fill-opacity="1.000" d="M 671.79 379.75 Q 672.82 380.38 672.98 381.53 Q 673.18 382.93 673.18 382.94 Q 673.82 385.41 674.81 388.88 A 2.06 2.04 56.8 0 1 674.43 390.75 Q 673.32 392.12 671.72 393.21 Q 671.66 393.25 669.19 395.27 Q 667.68 396.50 665.54 396.50 Q 665.83 395.31 666.54 394.30 Q 671.09 387.73 671.79 379.75 Z"/>
<path fill="rgb(210,190,192)" fill-opacity="1.000" d="M 678.06 382.43 Q 680.96 386.14 685.08 388.45 Q 687.66 389.89 684.91 390.72 L 680.99 391.89 A 0.81 0.74 60.9 0 1 680.18 391.62 Q 676.85 387.61 676.99 382.78 Q 677.03 381.12 678.06 382.43 Z"/>
<path fill="rgb(160,155,142)" fill-opacity="1.000" d="M 697.04 388.00 Q 697.65 390.83 700.15 392.72 A 0.52 0.51 22.9 0 0 700.97 392.39 Q 701.27 390.49 701.69 391.53 Q 702.47 393.49 702.19 395.55 Q 701.93 397.39 701.93 397.46 Q 701.25 405.04 697.69 411.68 Q 696.58 413.75 695.01 414.54 Q 693.18 415.46 691.00 415.46 Q 692.76 408.49 691.50 401.46 Q 693.38 398.96 693.12 395.81 A 1.80 1.64 57.4 0 1 693.28 394.88 Q 694.85 391.58 693.79 388.00 Q 695.42 386.60 697.04 388.00 Z M 699.5037 398.2105 A 2.86 1.79 64.0 0 0 699.8588 394.8553 A 2.86 1.79 64.0 0 0 696.9963 393.0695 A 2.86 1.79 64.0 0 0 696.6412 396.4247 A 2.86 1.79 64.0 0 0 699.5037 398.2105 Z"/>
<ellipse fill="rgb(235,233,232)" fill-opacity="1.000" cx="0" cy="0" rx="2.86" ry="1.79" transform="translate(698.25,395.64) rotate(64.0)"/>
<path fill="rgb(102,88,55)" fill-opacity="1.000" d="M 686.05 395.31 Q 684.98 397.73 685.15 394.68 A 0.90 0.81 81.4 0 1 685.63 393.95 Q 686.90 393.38 686.05 395.31 Z"/>
<path fill="rgb(142,135,115)" fill-opacity="1.000" d="M 691.00 401.54 L 691.50 401.46 Q 692.76 408.49 691.00 415.46 L 690.00 415.46 Q 689.12 414.39 688.96 413.00 Q 691.27 407.55 691.00 401.54 Z"/>
<path fill="rgb(210,190,192)" fill-opacity="1.000" d="M 61.45 528.63 Q 63.56 530.39 62.12 533.60 Q 61.45 535.08 60.52 533.74 Q 59.08 531.66 60.28 528.91 A 0.75 0.75 -58.3 0 1 61.45 528.63 Z"/>
<path fill="rgb(246,244,244)" fill-opacity="1.000" d="M 26.46 569.00 Q 26.34 570.31 26.63 571.55 Q 27.00 573.16 26.99 574.00 Q 26.97 584.26 27.75 594.50 Q 26.66 610.13 30.50 624.50 Q 32.18 630.79 34.84 639.11 Q 37.25 646.68 40.43 652.27 Q 45.27 660.78 52.44 670.56 Q 60.48 681.53 70.79 688.50 Q 75.88 691.94 86.80 696.29 Q 113.67 706.97 140.31 718.19 Q 152.43 723.12 165.25 725.75 Q 190.88 727.55 216.42 730.28 Q 218.35 730.48 220.32 731.50 Q 222.87 732.82 224.25 733.00 Q 233.80 734.27 243.41 734.34 Q 256.52 734.44 256.59 734.44 Q 327.72 736.52 349.25 738.00 Q 371.58 739.53 402.00 741.00 Q 422.21 741.97 439.75 741.56 Q 483.01 740.55 526.25 738.75 Q 534.64 738.54 550.75 736.50 Q 564.69 734.74 574.19 731.35 Q 592.07 724.97 610.00 718.75 Q 626.89 712.41 642.31 703.06 Q 652.32 697.00 662.56 691.32 Q 674.29 684.81 685.16 676.98 Q 690.05 673.46 693.93 669.02 Q 711.70 648.70 723.06 624.06 Q 724.61 621.55 725.73 618.85 Q 732.14 603.51 736.50 587.46 Q 741.36 590.96 743.19 593.56 Q 745.24 596.49 746.00 602.00 Q 745.42 609.17 746.75 616.25 Q 748.11 623.50 745.64 634.27 Q 740.35 657.36 724.19 676.44 Q 712.42 690.32 699.56 699.31 Q 697.86 700.50 692.25 705.49 Q 688.55 708.79 684.58 711.15 Q 667.72 721.17 650.44 730.43 Q 645.16 733.26 639.55 735.37 Q 633.89 737.50 628.63 740.44 Q 620.70 744.87 618.39 745.77 Q 612.03 748.27 605.25 749.50 Q 581.10 755.45 556.81 760.81 Q 539.72 767.91 521.25 769.25 Q 510.39 770.39 499.50 771.25 Q 485.24 771.57 471.00 772.50 Q 466.81 773.69 462.48 774.06 Q 453.75 774.82 445.00 774.98 Q 444.05 775.00 427.50 775.08 Q 407.11 775.18 386.74 774.42 Q 372.27 773.88 366.75 774.00 Q 355.35 774.24 344.01 775.56 Q 337.82 776.28 331.59 776.31 Q 331.51 776.31 323.42 776.55 Q 315.03 776.80 307.00 773.99 Q 304.08 772.96 301.00 772.50 Q 293.44 771.91 285.99 770.58 Q 278.16 769.19 270.25 770.00 Q 267.35 770.30 247.27 768.33 Q 227.77 766.43 208.25 764.71 Q 200.98 764.07 193.76 762.92 Q 187.79 761.96 181.77 761.43 Q 174.41 760.77 169.87 759.68 Q 156.76 756.52 144.20 751.52 Q 138.69 749.32 133.07 747.41 Q 115.68 741.49 102.06 731.94 Q 96.62 728.12 93.88 726.58 Q 88.24 723.41 83.13 719.48 Q 76.31 714.23 76.23 714.18 Q 63.62 704.92 56.81 699.19 Q 55.43 698.02 53.31 694.90 Q 48.63 688.03 42.06 682.94 Q 39.28 680.78 33.60 674.17 Q 28.11 667.79 22.09 661.91 Q 20.08 659.95 19.02 657.34 Q 12.81 642.19 12.06 640.19 Q 10.28 635.43 8.69 627.81 Q 7.64 622.79 7.88 618.23 Q 8.14 613.30 9.29 608.79 Q 10.64 603.47 14.06 598.81 Q 15.89 596.32 15.70 593.00 Q 15.30 585.82 22.19 585.57 A 0.93 0.85 70.5 0 1 22.96 585.98 L 24.38 588.03 Q 25.52 589.67 25.32 587.68 Q 24.34 577.90 26.46 569.00 Z"/>
<path fill="rgb(255,255,255)" fill-opacity="1.000" d="M 753.00 647.81 Q 753.00 711.31 753.00 774.81 Q 752.77 774.74 752.77 774.50 Q 752.75 711.50 752.75 648.50 Q 752.57 647.95 753.00 647.81 Z"/>
<path fill="rgb(214,214,214)" fill-opacity="1.000" d="M 2.00 782.50 Q 742.00 782.50 742.00 782.50 Q 746.88 782.37 751.75 782.71 Q 751.84 783.75 752.71 783.75 Q 685.35 783.75 618.00 783.75 Q 580.13 784.00 542.25 783.75 Q 512.88 784.35 483.50 783.75 Q 364.75 783.76 246.00 784.00 Q 200.50 784.02 155.00 783.75 Q 142.49 783.97 120.00 783.75 Q 89.88 783.45 1.75 784.00 Q 0.36 784.01 0.00 783.44 Q 0.00 783.19 0.00 782.94 Q 0.61 782.50 2.00 782.50 Z"/>
<path fill="rgb(245,245,245)" fill-opacity="1.000" d="M 0.00 783.44 Q 0.36 784.01 1.75 784.00 Q 89.88 783.45 120.00 783.75 Q 142.49 783.97 155.00 783.75 Q 200.50 784.02 246.00 784.00 Q 364.75 783.76 483.50 783.75 Q 512.88 784.35 542.25 783.75 Q 580.13 784.00 618.00 783.75 Q 685.35 783.75 752.71 783.75 Q 752.75 783.48 753.00 783.56 Q 753.00 786.78 753.00 790.00 Q 376.50 790.00 0.00 790.00 Q 0.00 786.72 0.00 783.44 Z"/>
</svg>