<?xml version="1.0" standalone="no"?>
<!DOCTYPE svg PUBLIC "-//W3C//DTD SVG 20010904//EN"
 "http://www.w3.org/TR/2001/REC-SVG-20010904/DTD/svg10.dtd">
<svg version="1.0" xmlns="http://www.w3.org/2000/svg"
 width="551.000000pt" height="551.000000pt" viewBox="0 0 551.000000 551.000000"
 preserveAspectRatio="xMidYMid meet">
<metadata>
Created by potrace 1.14, written by Peter Selinger 2001-2017
</metadata>
<g transform="translate(0.000000,551.000000) scale(0.100000,-0.100000)"
fill="#000000" stroke="none">
<path d="M2500 5489 c0 -2 5 -20 10 -39 38 -127 63 -326 65 -510 0 -69 4 -133
9 -142 6 -14 1 -18 -31 -23 -175 -29 -267 -50 -319 -74 -68 -32 -374 -214
-502 -299 -47 -31 -86 -51 -91 -46 -4 5 -31 43 -59 84 -78 115 -110 146 -170
164 -95 28 -161 30 -227 8 l-60 -21 -35 27 c-19 15 -77 62 -127 105 -51 43
-93 75 -93 72 0 -3 47 -61 104 -128 l104 -122 -29 -36 c-34 -44 -59 -99 -59
-132 0 -13 18 -60 40 -106 22 -45 40 -91 40 -102 0 -11 24 -44 53 -73 68 -68
98 -75 213 -46 97 25 98 24 137 -48 l27 -49 -51 -219 c-27 -120 -52 -228 -55
-239 -8 -27 99 79 184 181 l66 82 48 -68 c26 -38 48 -71 48 -74 0 -4 -75 -79
-167 -169 -277 -270 -369 -386 -479 -606 l-56 -113 -26 44 c-14 23 -47 69 -74
100 l-49 58 58 72 c32 40 96 116 142 168 47 52 91 102 98 111 8 9 41 144 73
300 32 156 67 319 76 361 10 43 15 81 11 84 -13 13 -58 -29 -127 -117 -185
-240 -320 -527 -380 -809 -32 -154 -26 -146 -108 -153 -133 -11 -218 -70 -279
-195 -58 -119 -37 -219 69 -317 86 -80 107 -89 215 -89 l91 -1 -5 -30 c-12
-76 78 -360 181 -570 75 -153 141 -256 242 -381 41 -51 74 -95 74 -98 0 -4 -9
-4 -20 -1 -30 10 -149 -29 -197 -64 -32 -23 -51 -50 -82 -114 l-39 -84 -179
-81 c-190 -86 -404 -173 -597 -243 -66 -23 -115 -44 -109 -46 19 -7 486 149
801 266 55 20 82 26 82 18 0 -29 60 -135 94 -165 79 -70 138 -87 249 -72 97
13 134 26 142 50 3 9 28 37 56 60 82 69 98 134 55 225 -12 28 -35 64 -50 82
l-27 32 33 14 c18 8 52 14 75 15 89 4 423 60 423 72 0 4 -22 22 -50 41 -27 19
-50 37 -50 41 0 8 108 58 126 58 7 0 43 -22 80 -50 78 -59 66 -57 329 -34 102
9 291 16 435 16 225 0 327 -4 601 -27 l67 -6 73 62 c97 80 484 442 678 633
216 213 266 277 386 500 l48 90 26 -35 c13 -18 52 -60 85 -92 45 -43 58 -62
51 -72 -6 -7 -67 -74 -138 -149 -156 -168 -207 -231 -207 -259 0 -12 -29 -173
-66 -358 l-66 -336 -71 -52 -72 -52 -3 82 c-4 103 50 381 115 594 3 11 -77
-61 -178 -160 -179 -175 -337 -321 -429 -397 -24 -20 -42 -38 -40 -41 3 -2
115 -22 250 -46 135 -23 250 -44 257 -46 9 -3 2 -25 -20 -72 -41 -87 -42 -147
-4 -226 15 -30 43 -69 62 -85 48 -43 137 -74 227 -80 94 -6 147 16 207 84 66
76 86 173 60 296 -10 43 -21 61 -64 104 -75 72 -130 97 -206 92 -32 -2 -59 0
-59 4 0 5 33 50 74 101 204 254 364 588 421 877 25 131 17 120 95 120 113 0
221 44 283 115 45 51 61 99 62 175 0 130 -42 227 -123 284 -36 26 -55 31 -115
34 -77 4 -174 -16 -236 -48 -20 -10 -65 -48 -101 -84 -35 -36 -69 -66 -75 -66
-5 0 -36 49 -68 108 -31 59 -89 163 -127 232 -39 69 -70 131 -70 139 0 11 11
12 51 7 94 -13 120 -30 248 -167 103 -109 127 -129 152 -129 16 0 32 6 35 14
9 23 -35 216 -81 353 -75 224 -188 430 -341 619 -41 51 -74 94 -74 98 0 3 19
6 43 6 163 0 280 124 295 312 9 119 -38 179 -187 245 -89 38 -141 42 -230 14
-89 -28 -144 -77 -191 -171 -23 -45 -48 -81 -58 -85 -14 -4 -62 21 -158 81
-288 180 -411 228 -669 264 -88 13 -164 26 -168 30 -4 3 7 37 24 74 43 91 44
168 5 259 -23 56 -34 68 -74 90 -138 74 -298 75 -405 2 l-37 -24 -19 37 c-10
20 -44 98 -76 172 -48 115 -75 169 -75 149z m665 -920 c67 -63 288 -248 372
-311 l54 -41 127 12 c152 15 251 34 350 68 68 23 75 23 97 9 51 -33 168 -162
224 -246 65 -97 60 -81 142 -463 23 -108 40 -199 38 -201 -2 -2 -54 20 -115
50 -72 36 -149 64 -220 82 l-110 27 -199 175 c-110 96 -237 205 -282 243 l-82
67 -153 -15 c-84 -8 -173 -17 -196 -19 l-44 -4 -29 62 c-16 33 -29 66 -29 72
0 12 48 20 180 30 47 3 91 7 98 10 7 2 -93 83 -222 180 -201 151 -239 183
-257 221 -12 24 -18 47 -14 51 3 4 41 14 83 23 88 18 74 24 187 -82z m-540
-111 c5 -73 4 -103 -4 -106 -24 -8 -239 -167 -235 -173 2 -4 60 -10 129 -14
69 -4 127 -11 130 -15 2 -3 7 -37 11 -75 l7 -68 -129 7 c-71 4 -172 13 -224
20 l-95 14 -75 -74 -75 -74 -67 48 c-37 26 -67 49 -68 52 0 3 32 20 70 38 39
18 70 37 70 41 0 14 -123 39 -228 47 -89 7 -94 8 -152 51 -51 38 -58 48 -50
63 6 10 10 34 10 53 0 18 2 36 5 39 3 3 121 -24 263 -58 141 -35 262 -62 267
-60 6 2 102 81 215 175 113 94 208 171 211 171 4 0 10 -46 14 -102z m-1536
-1983 c59 -119 150 -253 246 -365 57 -67 375 -375 584 -567 l44 -40 -76 -40
-77 -40 -131 125 c-71 69 -164 163 -205 209 -41 46 -74 77 -74 69 0 -24 59
-301 91 -431 34 -135 35 -134 -43 -157 -33 -10 -41 -9 -58 7 -36 33 -73 169
-140 517 l-47 248 -99 106 c-55 59 -127 138 -161 176 l-63 69 59 57 c41 41 64
73 77 109 10 29 19 51 20 50 2 -1 25 -47 53 -102z"/>
<path d="M4165 4163 c-11 -2 -103 -20 -205 -40 -102 -19 -190 -38 -197 -42 -7
-3 31 -41 95 -94 103 -84 154 -128 407 -356 64 -57 118 -101 122 -98 3 4 -6
48 -20 99 -45 163 -77 362 -77 486 l0 52 -52 -1 c-29 -1 -62 -3 -73 -6z"/>
<path d="M2660 1140 c-170 -9 -280 -20 -280 -29 0 -3 23 -21 51 -40 28 -19
110 -79 182 -133 164 -122 230 -158 289 -158 45 0 74 19 466 310 l34 25 -41 7
c-56 9 -409 28 -496 26 -38 0 -131 -4 -205 -8z"/>
<path d="M1897 1031 c-131 -27 -240 -50 -242 -53 -14 -14 166 -146 291 -214
184 -100 369 -156 578 -174 66 -6 121 -12 122 -13 2 -2 -9 -27 -24 -57 -57
-115 -26 -261 75 -349 83 -74 190 -98 287 -65 60 21 153 106 186 170 44 88 35
160 -38 296 -1 3 32 9 75 12 300 23 454 74 773 253 187 106 184 104 168 120
-17 17 -237 72 -410 104 -97 17 -132 20 -150 12 -41 -19 -280 -225 -394 -339
l-112 -112 -57 29 c-75 38 -168 40 -267 6 l-67 -23 -108 106 c-188 184 -384
340 -424 339 -13 0 -131 -22 -262 -48z"/>
</g>
</svg>
